<?xml version="1.0" encoding="utf-8"?>
<!-- Generator: Adobe Illustrator 19.1.0, SVG Export Plug-In . SVG Version: 6.00 Build 0)  -->
<svg version="1.1" id="Layer_1" xmlns="http://www.w3.org/2000/svg" xmlns:xlink="http://www.w3.org/1999/xlink" x="0px" y="0px"
	 viewBox="-533.3 392.2 70.5 70.8" enable-background="new -533.3 392.2 70.5 70.8" xml:space="preserve">
<g>
	<path fill="#003333" d="M-498.1,397.3c8.1,0,16.3,0,24.5,0c3.9,0,6.9,2.9,6.9,6.8c0,16,0,32,0,48c0,4-2.9,6.9-6.9,6.9
		c-16.2,0-32.6,0-48.8,0c-3.9,0-6.9-2.9-6.9-6.9c0-16,0-32,0-48c0-3.9,2.9-6.9,6.9-6.9C-514.4,397.3-506.3,397.3-498.1,397.3z
		 M-498.2,411.8c-8.9,0-17.9,0-26.8,0c-0.6,0-0.7,0.1-0.7,0.7c0,13.2,0,26.4,0,39.5c0,2.1,1.1,3.2,3.2,3.2c16.2,0,32.4,0,48.6,0
		c2,0,3.2-1.1,3.2-3.2c0-13.2,0-26.4,0-39.7c0-0.5-0.1-0.7-0.7-0.7C-480.2,411.8-489.2,411.8-498.2,411.8z M-498.2,409.8
		c9,0,17.9,0,26.9,0c0.6,0,0.7-0.2,0.7-0.7c0-1.6,0-3.3,0-5c0-1.9-1.1-3.1-3.1-3.1c-16.2,0-32.6,0-48.8,0c-1.9,0-3.1,1.1-3.1,3.1
		c0,1.6,0,3.3,0,5c0,0.6,0.1,0.7,0.7,0.7C-516,409.8-507,409.8-498.2,409.8z"/>
	<path fill="#003333" d="M-521.7,405.1c1,0,1.4,0.3,1.4,1c0,0.7-0.5,1-1.5,1c-0.2,0-0.4,0-0.6,0c-0.6-0.1-0.9-0.6-0.9-1.1
		s0.5-0.9,1-0.9C-522,405.1-521.8,405.1-521.7,405.1z"/>
	<path fill="#003333" d="M-514.9,407c-0.2,0-0.4,0-0.6,0c-0.5-0.1-0.9-0.6-0.9-1.1s0.5-0.9,1-0.9c0.3,0,0.6,0,0.9,0
		c0.7,0,1.1,0.4,1.1,1c0,0.6-0.4,1-1.1,1C-514.6,407-514.8,407-514.9,407L-514.9,407z"/>
	<path fill="#003333" d="M-508.1,407c-0.3,0-0.5,0-0.8-0.1c-0.5-0.1-0.8-0.5-0.7-1.1c0-0.5,0.4-0.8,0.9-0.9c0.3,0,0.7,0,1,0
		c0.6,0,1,0.4,1.1,0.9c0,0.5-0.4,1-1,1.1C-507.8,407-508,407-508.1,407L-508.1,407z"/>
</g>
</svg>
