<?xml version="1.0" encoding="utf-8"?>
<!-- Generator: Adobe Illustrator 19.1.0, SVG Export Plug-In . SVG Version: 6.00 Build 0)  -->
<svg version="1.1" id="Layer_1" xmlns="http://www.w3.org/2000/svg" xmlns:xlink="http://www.w3.org/1999/xlink" x="0px" y="0px"
	 viewBox="-220.5 367.2 70 70" enable-background="new -220.5 367.2 70 70" xml:space="preserve">
<g>
	<path fill="#003333" d="M-152.2,401.4c0.1,0.5-0.2,0.9-0.5,1.3c-4.7,5.8-9.5,11.7-14.2,17.5c-0.8,1-1.7,1.1-2.4,0.5
		c-0.8-0.6-0.8-1.6,0-2.6c4.3-5.3,8.6-10.7,12.9-15.9c0.5-0.6,0.5-1,0-1.6c-4.4-5.3-8.7-10.7-13-16c-0.5-0.6-0.7-1.3-0.3-2
		c0.4-0.6,0.9-0.8,1.6-0.7c0.5,0.1,0.8,0.4,1.1,0.7c4.8,5.9,9.6,11.8,14.4,17.8C-152.3,400.6-152.1,401-152.2,401.4z"/>
	<path fill="#003333" d="M-202.9,421.1c-0.6,0-1-0.3-1.4-0.7c-4.8-5.9-9.6-11.8-14.4-17.8c-0.6-0.8-0.6-1.5,0-2.3
		c2.9-3.6,5.8-7.2,8.7-10.8c0.7-0.9,1.7-1,2.4-0.5c0.8,0.6,0.8,1.6,0.1,2.5c-2.5,3-4.9,6.1-7.4,9.1c-0.5,0.5-0.6,0.9,0,1.5
		c4.3,5.2,8.5,10.5,12.8,15.7c0.2,0.3,0.5,0.6,0.7,0.9C-201,419.9-201.8,421.1-202.9,421.1z"/>
	<path fill="#003333" d="M-192.4,412.6c-0.5-0.1-1-0.3-1.3-0.9c-0.4-0.7-0.2-1.3,0.2-1.9c1.1-1.3,2.2-2.7,3.2-4
		c3.7-4.6,7.4-9.1,11.1-13.7c0.6-0.7,1.2-1.1,2.1-0.7c1.1,0.5,1.2,1.6,0.3,2.7c-2.2,2.8-4.5,5.6-6.8,8.3c-2.5,3-4.9,6.1-7.4,9.1
		C-191.2,412.2-191.6,412.6-192.4,412.6z"/>
	<path fill="#003333" d="M-204.3,386.8c-1.3,0-2.1-1.3-1.5-2.3c0.5-0.9,1.2-1.7,1.9-2.3c0.5-0.5,1.2-0.4,1.8-0.1
		c0.6,0.4,0.9,1,0.7,1.6c-0.5,1.2-1.3,2.2-2.3,2.9C-203.9,386.8-204.2,386.8-204.3,386.8z"/>
</g>
</svg>
