<?xml version="1.0" encoding="utf-8"?>
<!-- Generator: Adobe Illustrator 19.1.0, SVG Export Plug-In . SVG Version: 6.00 Build 0)  -->
<svg version="1.1" id="Layer_1" xmlns="http://www.w3.org/2000/svg" xmlns:xlink="http://www.w3.org/1999/xlink" x="0px" y="0px"
	 viewBox="-316.5 432.9 70 70" enable-background="new -316.5 432.9 70 70" xml:space="preserve">
<g>
	<path fill="#003333" d="M-281.7,489.2c-9.3,0-18.5,0-27.8,0c-0.3,0-0.6,0-0.9-0.1c-0.6-0.1-0.9-0.5-0.9-1c0-0.2,0-0.4,0-0.6
		c0-13.3,0-26.6,0-40c0-1.3,0.4-1.7,1.7-1.7c18.6,0,37.2,0,55.8,0c1.4,0,1.7,0.4,1.7,1.8c0,13.3,0,26.6,0,40c0,1.3-0.4,1.7-1.7,1.7
		C-263,489.2-272.3,489.2-281.7,489.2z M-308.8,458.3c0,9.5,0,19,0,28.4c18.1,0,36.2,0,54.3,0c0-9.5,0-19,0-28.4
		C-272.6,458.3-290.7,458.3-308.8,458.3z M-254.5,448.3c-18.1,0-36.2,0-54.3,0c0,2.5,0,5,0,7.5c18.1,0,36.2,0,54.3,0
		C-254.5,453.3-254.5,450.8-254.5,448.3z"/>
	<path fill="#003333" d="M-275.4,476.6c-5,0-10,0-15,0c-0.4,0-0.9-0.1-1.1-0.4c-0.2-0.3-0.3-0.8-0.3-1.1c0-0.5,0.4-0.8,0.9-0.9
		c0.2,0,0.3,0,0.5,0c10,0,20,0,30,0c0.9,0,1.5,0.5,1.5,1.2c0,0.6-0.5,1.1-1.1,1.2c-0.2,0-0.4,0-0.6,0
		C-265.6,476.6-270.5,476.6-275.4,476.6z"/>
	<path fill="#003333" d="M-275.4,464.9c-5,0-9.9,0-14.9,0c-1.1,0-1.7-0.4-1.7-1.2c0-0.8,0.6-1.2,1.7-1.2c9.9,0,19.7,0,29.6,0
		c0.3,0,0.5,0,0.8,0.1c0.6,0.2,0.9,0.7,0.9,1.3c-0.1,0.6-0.5,1-1,1.1c-0.2,0-0.5,0-0.7,0C-265.6,464.9-270.5,464.9-275.4,464.9z"/>
	<path fill="#003333" d="M-264.6,468.3c1.4,0,2.9,0,4.3,0c0.8,0,1.3,0.5,1.3,1.3c0,0.6-0.5,1.1-1.2,1.1c-2.9,0-5.9,0-8.8,0
		c-0.8,0-1.3-0.5-1.3-1.2c0-0.7,0.5-1.2,1.3-1.2C-267.6,468.3-266.1,468.3-264.6,468.3z"/>
	<path fill="#003333" d="M-264.7,482.4c-1.4,0-2.8,0-4.3,0c-0.8,0-1.4-0.5-1.4-1.2c0-0.8,0.5-1.2,1.4-1.2c2.8,0,5.7,0,8.5,0
		c0.9,0,1.4,0.5,1.4,1.2c0,0.8-0.5,1.2-1.4,1.2C-261.8,482.4-263.2,482.4-264.7,482.4z"/>
	<path fill="#003333" d="M-276.9,468.3c1.3,0,2.5,0,3.8,0c0.9,0,1.4,0.5,1.4,1.2s-0.6,1.2-1.4,1.2c-2.5,0-5.1,0-7.6,0
		c-0.8,0-1.4-0.5-1.4-1.2s0.5-1.2,1.4-1.2C-279.5,468.3-278.2,468.3-276.9,468.3z"/>
	<path fill="#003333" d="M-276.9,480c1.3,0,2.5,0,3.8,0c0.8,0,1.3,0.5,1.4,1.2c0,0.7-0.5,1.2-1.4,1.2c-2.6,0-5.1,0-7.7,0
		c-0.8,0-1.4-0.5-1.4-1.2c0-0.7,0.5-1.2,1.4-1.2C-279.5,480-278.2,480-276.9,480z"/>
	<path fill="#003333" d="M-288.4,468.3c0.7,0,1.5,0,2.2,0c0.8,0,1.3,0.5,1.3,1.2s-0.5,1.2-1.3,1.2c-1.5,0-3,0-4.4,0
		c-0.8,0-1.3-0.5-1.3-1.2s0.5-1.2,1.3-1.2h0.1C-289.8,468.3-289.1,468.3-288.4,468.3L-288.4,468.3z"/>
	<path fill="#003333" d="M-288.4,480c0.7,0,1.5,0,2.2,0c0.8,0,1.3,0.5,1.3,1.2c0,0.7-0.5,1.2-1.3,1.2c-1.5,0-3,0-4.5,0
		c-0.7,0-1.3-0.5-1.3-1.2c0-0.7,0.5-1.2,1.3-1.2S-289.1,480-288.4,480z"/>
	<path fill="#003333" d="M-300.9,476.5c-0.7,0-1.5,0-2.2,0c-0.8,0-1.3-0.5-1.2-1.2c0-0.7,0.5-1.2,1.3-1.2c1.5,0,2.9,0,4.4,0
		c0.8,0,1.3,0.5,1.3,1.2s-0.5,1.2-1.3,1.2C-299.4,476.6-300.2,476.5-300.9,476.5z"/>
	<path fill="#003333" d="M-300.9,480c0.7,0,1.5,0,2.2,0s1.3,0.5,1.3,1.2c0,0.7-0.5,1.2-1.3,1.2c-1.5,0-3,0-4.4,0
		c-0.7,0-1.2-0.5-1.2-1.2c0-0.7,0.5-1.2,1.3-1.2C-302.3,480-301.6,480-300.9,480z"/>
	<path fill="#003333" d="M-300.9,464.9c-0.7,0-1.4,0-2.1,0c-0.8,0-1.3-0.5-1.3-1.2c0-0.7,0.5-1.2,1.3-1.3c1.5,0,2.9,0,4.4,0
		c0.8,0,1.3,0.5,1.3,1.2c0,0.7-0.5,1.2-1.3,1.2C-299.4,464.9-300.2,464.9-300.9,464.9z"/>
	<path fill="#003333" d="M-300.8,468.3c0.7,0,1.4,0,2.1,0c0.8,0,1.3,0.5,1.3,1.2s-0.5,1.2-1.3,1.3c-1.5,0-2.9,0-4.4,0
		c-0.8,0-1.3-0.5-1.3-1.2c0-0.7,0.5-1.2,1.3-1.2h0.1C-302.2,468.3-301.5,468.3-300.8,468.3z"/>
	<path fill="#003333" d="M-302.8,450.8c0.9,0,1.5,0.4,1.5,1.1c0,0.5-0.2,0.9-0.6,1.1c-0.7,0.3-1.4,0.3-2-0.1
		c-0.4-0.3-0.5-0.7-0.4-1.2C-304.2,451.1-303.7,450.8-302.8,450.8z"/>
	<path fill="#003333" d="M-292.3,450.8c1.2,0,1.8,0.7,1.5,1.6c-0.3,0.8-1,0.9-2.1,0.7c-0.6-0.1-1-0.6-0.9-1.3
		C-293.8,451.2-293.3,450.8-292.3,450.8z"/>
	<path fill="#003333" d="M-297.5,453.2c-0.2,0-0.3,0-0.5,0c-0.6-0.1-1.1-0.6-1.1-1.2s0.5-1.1,1.1-1.2c0.3,0,0.5,0,0.8,0
		c0.7,0,1.2,0.5,1.2,1.2c0,0.7-0.5,1.2-1.2,1.2C-297.3,453.2-297.4,453.2-297.5,453.2L-297.5,453.2z"/>
</g>
</svg>
