<?xml version="1.0" encoding="utf-8"?>
<!-- Generator: Adobe Illustrator 19.1.0, SVG Export Plug-In . SVG Version: 6.00 Build 0)  -->
<svg version="1.1" id="Layer_1" xmlns="http://www.w3.org/2000/svg" xmlns:xlink="http://www.w3.org/1999/xlink" x="0px" y="0px"
	 viewBox="-214.5 498.9 70 70" enable-background="new -214.5 498.9 70 70" xml:space="preserve">
<g>
	<path fill="#003333" d="M-327.1,327.2c-5.4,0.1-10.8-1.5-15.9-4.3c-5.9-3.2-11.2-7.3-15.8-12.4c-1.8-2-1.8-4.3,0-6.3
		c5.5-6,11.7-10.9,19.2-14c9.3-3.9,18.6-3.4,27.7,0.9c5.3,2.5,10,6,14.3,10.1c1,1,2,2,2.9,3c1.8,2,1.8,4.3,0,6.3
		c-6.2,6.8-13.4,12.1-22.1,15.1C-319.9,326.8-323.2,327.3-327.1,327.2z M-326.6,323.2c2.8,0,5.5-0.4,8.1-1.2c3.7-1.1,7.1-2.8,10.3-5
		c3.8-2.6,7.4-5.4,10.4-8.8c0.6-0.7,0.7-0.8,0-1.5c-0.7-0.8-1.4-1.5-2.1-2.2c-4.3-4.2-9.2-7.6-14.7-10.1c-6.1-2.7-12.4-3.4-18.9-1.8
		c-4.9,1.3-9.4,3.7-13.5,6.6c-3.1,2.2-6,4.7-8.5,7.6c-0.3,0.4-0.4,0.7,0,1.1c4.6,5.1,9.9,9.2,16.1,12.2
		C-335.4,322.1-331.1,323.2-326.6,323.2z"/>
	<path fill="#003333" d="M-313.9,307.5c0,7.1-5.6,12.7-12.7,12.7s-12.8-5.6-12.8-12.5c0-7.3,5.6-12.9,12.8-12.9
		C-319.5,294.7-313.9,300.4-313.9,307.5z M-326.5,298.7c-4.8-0.1-8.8,3.8-8.8,8.7c-0.1,4.7,3.9,8.7,8.7,8.8c4.7,0.1,8.6-3.8,8.7-8.6
		C-317.9,302.8-321.7,298.8-326.5,298.7z"/>
</g>
<g>
	<path fill="#003333" d="M-152.2,401.4c0.1,0.5-0.2,0.9-0.5,1.3c-4.7,5.8-9.5,11.7-14.2,17.5c-0.8,1-1.7,1.1-2.4,0.5
		c-0.8-0.6-0.8-1.6,0-2.6c4.3-5.3,8.6-10.7,12.9-15.9c0.5-0.6,0.5-1,0-1.6c-4.4-5.3-8.7-10.7-13-16c-0.5-0.6-0.7-1.3-0.3-2
		c0.4-0.6,0.9-0.8,1.6-0.7c0.5,0.1,0.8,0.4,1.1,0.7c4.8,5.9,9.6,11.8,14.4,17.8C-152.3,400.6-152.1,401-152.2,401.4z"/>
	<path fill="#003333" d="M-202.9,421.1c-0.6,0-1-0.3-1.4-0.7c-4.8-5.9-9.6-11.8-14.4-17.8c-0.6-0.8-0.6-1.5,0-2.3
		c2.9-3.6,5.8-7.2,8.7-10.8c0.7-0.9,1.7-1,2.4-0.5c0.8,0.6,0.8,1.6,0.1,2.5c-2.5,3-4.9,6.1-7.4,9.1c-0.5,0.5-0.6,0.9,0,1.5
		c4.3,5.2,8.5,10.5,12.8,15.7c0.2,0.3,0.5,0.6,0.7,0.9C-201,419.9-201.8,421.1-202.9,421.1z"/>
	<path fill="#003333" d="M-192.4,412.6c-0.5-0.1-1-0.3-1.3-0.9c-0.4-0.7-0.2-1.3,0.2-1.9c1.1-1.3,2.2-2.7,3.2-4
		c3.7-4.6,7.4-9.1,11.1-13.7c0.6-0.7,1.2-1.1,2.1-0.7c1.1,0.5,1.2,1.6,0.3,2.7c-2.2,2.8-4.5,5.6-6.8,8.3c-2.5,3-4.9,6.1-7.4,9.1
		C-191.2,412.2-191.6,412.6-192.4,412.6z"/>
	<path fill="#003333" d="M-204.3,386.8c-1.3,0-2.1-1.3-1.5-2.3c0.5-0.9,1.2-1.7,1.9-2.3c0.5-0.5,1.2-0.4,1.8-0.1
		c0.6,0.4,0.9,1,0.7,1.6c-0.5,1.2-1.3,2.2-2.3,2.9C-203.9,386.8-204.2,386.8-204.3,386.8z"/>
</g>
<g>
	<path fill="#003333" d="M-339.4,467.9c-9.3,0-18.5,0-27.8,0c-0.3,0-0.6,0-0.9-0.1c-0.6-0.1-0.9-0.5-0.9-1c0-0.2,0-0.4,0-0.6
		c0-13.3,0-26.6,0-40c0-1.3,0.4-1.7,1.7-1.7c18.6,0,37.2,0,55.8,0c1.4,0,1.7,0.4,1.7,1.8c0,13.3,0,26.6,0,40c0,1.3-0.4,1.7-1.7,1.7
		C-320.7,467.9-330,467.9-339.4,467.9z M-366.5,437c0,9.5,0,19,0,28.4c18.1,0,36.2,0,54.3,0c0-9.5,0-19,0-28.4
		C-330.3,437-348.4,437-366.5,437z M-312.2,427c-18.1,0-36.2,0-54.3,0c0,2.5,0,5,0,7.5c18.1,0,36.2,0,54.3,0
		C-312.2,432-312.2,429.5-312.2,427z"/>
	<path fill="#003333" d="M-333.1,455.3c-5,0-10,0-15,0c-0.4,0-0.9-0.1-1.1-0.4c-0.2-0.3-0.3-0.8-0.3-1.1c0-0.5,0.4-0.8,0.9-0.9
		c0.2,0,0.3,0,0.5,0c10,0,20,0,30,0c0.9,0,1.5,0.5,1.5,1.2c0,0.6-0.5,1.1-1.1,1.2c-0.2,0-0.4,0-0.6,0
		C-323.3,455.3-328.2,455.3-333.1,455.3z"/>
	<path fill="#003333" d="M-333.1,443.6c-5,0-9.9,0-14.9,0c-1.1,0-1.7-0.4-1.7-1.2c0-0.8,0.6-1.2,1.7-1.2c9.9,0,19.7,0,29.6,0
		c0.3,0,0.5,0,0.8,0.1c0.6,0.2,0.9,0.7,0.9,1.3c-0.1,0.6-0.5,1-1,1.1c-0.2,0-0.5,0-0.7,0C-323.3,443.6-328.2,443.6-333.1,443.6z"/>
	<path fill="#003333" d="M-322.3,447c1.4,0,2.9,0,4.3,0c0.8,0,1.3,0.5,1.3,1.3c0,0.6-0.5,1.1-1.2,1.1c-2.9,0-5.9,0-8.8,0
		c-0.8,0-1.3-0.5-1.3-1.2c0-0.7,0.5-1.2,1.3-1.2C-325.3,447-323.8,447-322.3,447z"/>
	<path fill="#003333" d="M-322.4,461.1c-1.4,0-2.8,0-4.3,0c-0.8,0-1.4-0.5-1.4-1.2c0-0.8,0.5-1.2,1.4-1.2c2.8,0,5.7,0,8.5,0
		c0.9,0,1.4,0.5,1.4,1.2c0,0.8-0.5,1.2-1.4,1.2C-319.5,461.1-320.9,461.1-322.4,461.1z"/>
	<path fill="#003333" d="M-334.6,447c1.3,0,2.5,0,3.8,0c0.9,0,1.4,0.5,1.4,1.2c0,0.7-0.6,1.2-1.4,1.2c-2.5,0-5.1,0-7.6,0
		c-0.8,0-1.4-0.5-1.4-1.2c0-0.7,0.5-1.2,1.4-1.2C-337.2,447-335.9,447-334.6,447z"/>
	<path fill="#003333" d="M-334.6,458.7c1.3,0,2.5,0,3.8,0c0.8,0,1.3,0.5,1.4,1.2c0,0.7-0.5,1.2-1.4,1.2c-2.6,0-5.1,0-7.7,0
		c-0.8,0-1.4-0.5-1.4-1.2c0-0.7,0.5-1.2,1.4-1.2C-337.2,458.7-335.9,458.7-334.6,458.7z"/>
	<path fill="#003333" d="M-346.1,447c0.7,0,1.5,0,2.2,0c0.8,0,1.3,0.5,1.3,1.2c0,0.7-0.5,1.2-1.3,1.2c-1.5,0-3,0-4.4,0
		c-0.8,0-1.3-0.5-1.3-1.2c0-0.7,0.5-1.2,1.3-1.2h0.1C-347.5,447-346.8,447-346.1,447L-346.1,447z"/>
	<path fill="#003333" d="M-346.1,458.7c0.7,0,1.5,0,2.2,0c0.8,0,1.3,0.5,1.3,1.2c0,0.7-0.5,1.2-1.3,1.2c-1.5,0-3,0-4.5,0
		c-0.7,0-1.3-0.5-1.3-1.2c0-0.7,0.5-1.2,1.3-1.2C-347.6,458.7-346.8,458.7-346.1,458.7z"/>
	<path fill="#003333" d="M-358.6,455.2c-0.7,0-1.5,0-2.2,0c-0.8,0-1.3-0.5-1.2-1.2c0-0.7,0.5-1.2,1.3-1.2c1.5,0,2.9,0,4.4,0
		c0.8,0,1.3,0.5,1.3,1.2c0,0.7-0.5,1.2-1.3,1.2C-357.1,455.3-357.9,455.2-358.6,455.2z"/>
	<path fill="#003333" d="M-358.6,458.7c0.7,0,1.5,0,2.2,0c0.7,0,1.3,0.5,1.3,1.2c0,0.7-0.5,1.2-1.3,1.2c-1.5,0-3,0-4.4,0
		c-0.7,0-1.2-0.5-1.2-1.2c0-0.7,0.5-1.2,1.3-1.2C-360,458.7-359.3,458.7-358.6,458.7z"/>
	<path fill="#003333" d="M-358.6,443.6c-0.7,0-1.4,0-2.1,0c-0.8,0-1.3-0.5-1.3-1.2c0-0.7,0.5-1.2,1.3-1.3c1.5,0,2.9,0,4.4,0
		c0.8,0,1.3,0.5,1.3,1.2s-0.5,1.2-1.3,1.2C-357.1,443.6-357.9,443.6-358.6,443.6z"/>
	<path fill="#003333" d="M-358.5,447c0.7,0,1.4,0,2.1,0c0.8,0,1.3,0.5,1.3,1.2c0,0.7-0.5,1.2-1.3,1.3c-1.5,0-2.9,0-4.4,0
		c-0.8,0-1.3-0.5-1.3-1.2s0.5-1.2,1.3-1.2h0.1C-359.9,447-359.2,447-358.5,447z"/>
	<path fill="#003333" d="M-360.5,429.5c0.9,0,1.5,0.4,1.5,1.1c0,0.5-0.2,0.9-0.6,1.1c-0.7,0.3-1.4,0.3-2-0.1
		c-0.4-0.3-0.5-0.7-0.4-1.2C-361.9,429.8-361.4,429.5-360.5,429.5z"/>
	<path fill="#003333" d="M-350,429.5c1.2,0,1.8,0.7,1.5,1.6c-0.3,0.8-1,0.9-2.1,0.7c-0.6-0.1-1-0.6-0.9-1.3
		C-351.5,429.9-351,429.5-350,429.5z"/>
	<path fill="#003333" d="M-355.2,431.9c-0.2,0-0.3,0-0.5,0c-0.6-0.1-1.1-0.6-1.1-1.2s0.5-1.1,1.1-1.2c0.3,0,0.5,0,0.8,0
		c0.7,0,1.2,0.5,1.2,1.2c0,0.7-0.5,1.2-1.2,1.2C-355,431.9-355.1,431.9-355.2,431.9L-355.2,431.9z"/>
</g>
<g>
	<path fill="#003333" d="M-498.1,397.3c8.1,0,16.3,0,24.5,0c3.9,0,6.9,2.9,6.9,6.8c0,16,0,32,0,48c0,4-2.9,6.9-6.9,6.9
		c-16.2,0-32.6,0-48.8,0c-3.9,0-6.9-2.9-6.9-6.9c0-16,0-32,0-48c0-3.9,2.9-6.9,6.9-6.9C-514.4,397.3-506.3,397.3-498.1,397.3z
		 M-498.2,411.8c-8.9,0-17.9,0-26.8,0c-0.6,0-0.7,0.1-0.7,0.7c0,13.2,0,26.4,0,39.5c0,2.1,1.1,3.2,3.2,3.2c16.2,0,32.4,0,48.6,0
		c2,0,3.2-1.1,3.2-3.2c0-13.2,0-26.4,0-39.7c0-0.5-0.1-0.7-0.7-0.7C-480.2,411.8-489.2,411.8-498.2,411.8z M-498.2,409.8
		c9,0,17.9,0,26.9,0c0.6,0,0.7-0.2,0.7-0.7c0-1.6,0-3.3,0-5c0-1.9-1.1-3.1-3.1-3.1c-16.2,0-32.6,0-48.8,0c-1.9,0-3.1,1.1-3.1,3.1
		c0,1.6,0,3.3,0,5c0,0.6,0.1,0.7,0.7,0.7C-516,409.8-507,409.8-498.2,409.8z"/>
	<path fill="#003333" d="M-521.7,405.1c1,0,1.4,0.3,1.4,1c0,0.7-0.5,1-1.5,1c-0.2,0-0.4,0-0.6,0c-0.6-0.1-0.9-0.6-0.9-1.1
		s0.5-0.9,1-0.9C-522,405.1-521.8,405.1-521.7,405.1z"/>
	<path fill="#003333" d="M-514.9,407c-0.2,0-0.4,0-0.6,0c-0.5-0.1-0.9-0.6-0.9-1.1s0.5-0.9,1-0.9c0.3,0,0.6,0,0.9,0
		c0.7,0,1.1,0.4,1.1,1c0,0.6-0.4,1-1.1,1C-514.6,407-514.8,407-514.9,407L-514.9,407z"/>
	<path fill="#003333" d="M-508.1,407c-0.3,0-0.5,0-0.8-0.1c-0.5-0.1-0.8-0.5-0.7-1.1c0-0.5,0.4-0.8,0.9-0.9c0.3,0,0.7,0,1,0
		c0.6,0,1,0.4,1.1,0.9c0,0.5-0.4,1-1,1.1C-507.8,407-508,407-508.1,407L-508.1,407z"/>
</g>
<g>
	<path fill="none" stroke="#003333" stroke-width="3" stroke-linecap="round" stroke-miterlimit="10" d="M-600.8,330.5
		c-2.3,0-4.1-1.8-4.1-4.1v-34.3c0-2.3,1.8-4.1,4.1-4.1"/>
	<path fill="none" stroke="#003333" stroke-width="3" stroke-linecap="round" stroke-miterlimit="10" d="M-566.5,288
		c2.3,0,4.1,1.8,4.1,4.1v34.3c0,2.3-1.8,4.1-4.1,4.1"/>
</g>
<linearGradient id="SVGID_1_" gradientUnits="userSpaceOnUse" x1="10.5736" y1="-39.9922" x2="10.5736" y2="-125.4879">
	<stop  offset="0" style="stop-color:#FFFFFF;stop-opacity:0"/>
	<stop  offset="1" style="stop-color:#FFFFFF"/>
</linearGradient>
<rect x="-692.9" y="-125.5" fill="url(#SVGID_1_)" width="1406.9" height="85.5"/>
<g>
	<path fill="#C2E3DB" d="M-101.5,192.3c0,0.6,0,1.2,0,1.7c0,0.1,0,0.2,0,0.4c-0.1,0.4-0.3,0.5-0.7,0.4c-0.5-0.2-0.9-0.4-1.4-0.5
		c-0.1,0-0.3,0-0.4,0c-0.4,0.2-0.9,0.3-1.3,0.5c-0.4,0.2-0.7-0.1-0.7-0.5c0-0.6,0-1.3,0-1.9c0,0,0,0,0-0.1c-0.1,0-0.2,0-0.3,0
		c-1.4,0-2.8,0-4.1,0c-0.5,0-0.6-0.2-0.6-0.6c0-8.9,0-17.7,0-26.6c0-0.5,0.2-0.6,0.6-0.6c7,0,14.1,0,21.1,0c0.9,0,1.6,0.7,1.6,1.6
		c0,8.2,0,16.4,0,24.6c0,0.9-0.7,1.6-1.6,1.6c-3.9,0-7.8,0-11.6,0C-101.2,192.3-101.4,192.3-101.5,192.3z M-107.5,165.5
		c0,8.6,0,17.2,0,25.8c0.1,0,0.2,0,0.3,0c5.9,0,11.7,0,17.6,0c0.6,0,0.8-0.2,0.8-0.8c0-8.1,0-16.2,0-24.3c0-0.6-0.2-0.8-0.7-0.8
		c-5.8,0-11.7,0-17.5,0C-107.3,165.5-107.4,165.5-107.5,165.5z M-110.2,165.5c0,8.6,0,17.2,0,25.8c0.6,0,1.1,0,1.7,0
		c0-8.6,0-17.2,0-25.8C-109.1,165.5-109.6,165.5-110.2,165.5z M-102.5,193.6c0-0.5,0-0.9,0-1.3c-0.9,0-1.7,0-2.5,0
		c0,0.4,0,0.8,0,1.3c0.3-0.1,0.6-0.3,1-0.4c0.2-0.1,0.4-0.1,0.6,0C-103.2,193.4-102.9,193.5-102.5,193.6z"/>
	<path fill="#C2E3DB" d="M-95.5,186.4c1.2,0,2.3,0,3.5,0c0.4,0,0.6,0.2,0.6,0.5c0,0.3-0.2,0.5-0.6,0.5c-2.3,0-4.6,0-6.9,0
		c-0.4,0-0.6-0.2-0.6-0.5c0-0.3,0.2-0.5,0.6-0.5C-97.8,186.4-96.7,186.4-95.5,186.4z"/>
	<path fill="#C2E3DB" d="M-98.3,167.7c1.1,0,2.3,0,3.4,0c0.4,0,0.6,0.2,0.6,0.5c0,0.3-0.2,0.5-0.6,0.5c-2.3,0-4.6,0-6.9,0
		c-0.4,0-0.6-0.2-0.6-0.5c0-0.3,0.2-0.5,0.6-0.5C-100.5,167.7-99.4,167.7-98.3,167.7z"/>
	<path fill="#C2E3DB" d="M-98.3,170.8c1.9,0,3.9,0,5.8,0c0.7,0,1,0.2,1,0.5c0,0.3-0.4,0.5-1,0.5c-3.9,0-7.7,0-11.6,0
		c-0.6,0-1-0.2-1-0.5c0-0.3,0.4-0.5,1.1-0.5C-102.1,170.8-100.2,170.8-98.3,170.8z"/>
	<path fill="#C2E3DB" d="M-98.3,173c1.9,0,3.9,0,5.8,0c0.7,0,1,0.2,1,0.5c0,0.3-0.4,0.5-1,0.5c-3.9,0-7.7,0-11.6,0
		c-0.6,0-1-0.2-1-0.5c0-0.3,0.4-0.5,1.1-0.5C-102.1,173-100.2,173-98.3,173z"/>
	<path fill="#C2E3DB" d="M-98.3,175.2c1.9,0,3.9,0,5.8,0c0.7,0,1,0.2,1,0.5c0,0.3-0.4,0.5-1,0.5c-3.9,0-7.7,0-11.6,0
		c-0.6,0-1-0.2-1-0.5c0-0.3,0.4-0.5,1.1-0.5C-102.1,175.2-100.2,175.2-98.3,175.2z"/>
	<path fill="#C2E3DB" d="M-98.3,177.3c1.9,0,3.9,0,5.8,0c0.7,0,1,0.2,1,0.5c0,0.3-0.4,0.5-1,0.5c-3.9,0-7.7,0-11.6,0
		c-0.6,0-1-0.2-1-0.5c0-0.3,0.4-0.5,1.1-0.5C-102.1,177.3-100.2,177.3-98.3,177.3z"/>
	<path fill="#C2E3DB" d="M-98.3,179.5c1.9,0,3.9,0,5.8,0c0.7,0,1,0.2,1,0.5c0,0.3-0.4,0.5-1,0.5c-3.9,0-7.7,0-11.6,0
		c-0.6,0-1-0.2-1-0.5c0-0.3,0.4-0.5,1.1-0.5C-102.1,179.5-100.2,179.5-98.3,179.5z"/>
	<path fill="#C2E3DB" d="M-98.3,181.7c1.9,0,3.9,0,5.8,0c0.7,0,1,0.2,1,0.5c0,0.3-0.4,0.5-1,0.5c-3.9,0-7.7,0-11.6,0
		c-0.6,0-1-0.2-1-0.5c0-0.3,0.4-0.5,1.1-0.5C-102.1,181.7-100.2,181.7-98.3,181.7z"/>
	<path fill="#C2E3DB" d="M-98.3,183.8c1.9,0,3.9,0,5.8,0c0.7,0,1,0.2,1,0.5c0,0.3-0.4,0.5-1,0.5c-3.9,0-7.7,0-11.6,0
		c-0.6,0-1-0.2-1-0.5c0-0.3,0.4-0.5,1.1-0.5C-102.1,183.8-100.2,183.8-98.3,183.8z"/>
	<path fill="#C2E3DB" d="M-94.4,189.4c-0.8,0-1.6,0-2.4,0c-0.4,0-0.6-0.2-0.6-0.5c0-0.3,0.2-0.5,0.6-0.5c1.6,0,3.2,0,4.8,0
		c0.4,0,0.6,0.2,0.6,0.5c0,0.3-0.2,0.5-0.6,0.5C-92.8,189.4-93.6,189.4-94.4,189.4z"/>
</g>
<g>
	<path fill="#C2E3DB" d="M-30.2,192.3c0,0.6,0,1.2,0,1.7c0,0.1,0,0.2,0,0.4c-0.1,0.4-0.3,0.5-0.7,0.4c-0.5-0.2-0.9-0.4-1.4-0.5
		c-0.1,0-0.3,0-0.4,0c-0.4,0.2-0.9,0.3-1.3,0.5c-0.4,0.2-0.7-0.1-0.7-0.5c0-0.6,0-1.3,0-1.9c0,0,0,0,0-0.1c-0.1,0-0.2,0-0.3,0
		c-1.4,0-2.8,0-4.1,0c-0.5,0-0.6-0.2-0.6-0.6c0-8.9,0-17.7,0-26.6c0-0.5,0.2-0.6,0.6-0.6c7,0,14.1,0,21.1,0c0.9,0,1.6,0.7,1.6,1.6
		c0,8.2,0,16.4,0,24.6c0,0.9-0.7,1.6-1.6,1.6c-3.9,0-7.8,0-11.6,0C-30,192.3-30.1,192.3-30.2,192.3z M-36.2,165.5
		c0,8.6,0,17.2,0,25.8c0.1,0,0.2,0,0.3,0c5.9,0,11.7,0,17.6,0c0.6,0,0.8-0.2,0.8-0.8c0-8.1,0-16.2,0-24.3c0-0.6-0.2-0.8-0.7-0.8
		c-5.8,0-11.7,0-17.5,0C-36,165.5-36.1,165.5-36.2,165.5z M-38.9,165.5c0,8.6,0,17.2,0,25.8c0.6,0,1.1,0,1.7,0c0-8.6,0-17.2,0-25.8
		C-37.8,165.5-38.4,165.5-38.9,165.5z M-31.3,193.6c0-0.5,0-0.9,0-1.3c-0.9,0-1.7,0-2.5,0c0,0.4,0,0.8,0,1.3c0.3-0.1,0.6-0.3,1-0.4
		c0.2-0.1,0.4-0.1,0.6,0C-31.9,193.4-31.6,193.5-31.3,193.6z"/>
	<path fill="#C2E3DB" d="M-24.3,186.4c1.2,0,2.3,0,3.5,0c0.4,0,0.6,0.2,0.6,0.5c0,0.3-0.2,0.5-0.6,0.5c-2.3,0-4.6,0-6.9,0
		c-0.4,0-0.6-0.2-0.6-0.5c0-0.3,0.2-0.5,0.6-0.5C-26.5,186.4-25.4,186.4-24.3,186.4z"/>
	<path fill="#C2E3DB" d="M-23.2,189.4c-0.8,0-1.6,0-2.4,0c-0.4,0-0.6-0.2-0.6-0.5c0-0.3,0.2-0.5,0.6-0.5c1.6,0,3.2,0,4.8,0
		c0.4,0,0.6,0.2,0.6,0.5c0,0.3-0.2,0.5-0.6,0.5C-21.6,189.4-22.4,189.4-23.2,189.4z"/>
	<path fill="#C2E3DB" d="M-22.9,178.3c0-0.8,0.6-1.4,1.4-1.4c0.8,0,1.4,0.6,1.4,1.4c0,0.8-0.6,1.4-1.4,1.4
		C-22.3,179.7-23,179.1-22.9,178.3z M-21.2,178.3c0-0.2-0.2-0.4-0.4-0.4c-0.2,0-0.4,0.2-0.4,0.4c0,0.2,0.2,0.4,0.4,0.4
		C-21.3,178.7-21.2,178.5-21.2,178.3z"/>
	<path fill="#C2E3DB" d="M-25.5,178.3c0,0.8-0.6,1.4-1.4,1.4c-0.8,0-1.4-0.7-1.4-1.4c0-0.8,0.6-1.4,1.4-1.4
		C-26.1,177-25.5,177.6-25.5,178.3z M-26.9,178c-0.2,0-0.4,0.2-0.4,0.4c0,0.2,0.2,0.4,0.4,0.4c0.2,0,0.4-0.2,0.4-0.4
		C-26.5,178.1-26.7,178-26.9,178z"/>
	<path fill="#C2E3DB" d="M-33.7,182.9c0-0.8,0.6-1.4,1.4-1.4c0.8,0,1.4,0.6,1.4,1.4c0,0.8-0.6,1.4-1.4,1.4
		C-33.1,184.3-33.7,183.7-33.7,182.9z M-32.3,183.3c0.2,0,0.4-0.2,0.4-0.4c0-0.2-0.2-0.4-0.4-0.4c-0.2,0-0.4,0.1-0.4,0.4
		C-32.7,183.2-32.5,183.3-32.3,183.3z"/>
	<path fill="#C2E3DB" d="M-33.7,169.1c0-0.8,0.6-1.4,1.4-1.4c0.8,0,1.4,0.6,1.4,1.4c0,0.8-0.6,1.4-1.4,1.4
		C-33.1,170.5-33.7,169.9-33.7,169.1z M-31.9,169.1c0-0.2-0.2-0.4-0.4-0.4c-0.2,0-0.4,0.2-0.4,0.4c0,0.2,0.2,0.4,0.4,0.4
		C-32.1,169.5-31.9,169.3-31.9,169.1z"/>
	<path fill="#C2E3DB" d="M-22.9,173.7c0-0.8,0.6-1.4,1.4-1.4c0.8,0,1.4,0.6,1.4,1.4c0,0.8-0.6,1.4-1.4,1.4
		C-22.3,175.1-22.9,174.5-22.9,173.7z M-21.9,173.7c0,0.2,0.2,0.4,0.4,0.4c0.2,0,0.4-0.1,0.4-0.4c0-0.2-0.2-0.4-0.4-0.4
		C-21.8,173.3-21.9,173.5-21.9,173.7z"/>
	<path fill="#C2E3DB" d="M-33.7,178.3c0-0.8,0.6-1.4,1.4-1.4c0.8,0,1.4,0.6,1.4,1.4c0,0.8-0.7,1.4-1.4,1.4
		C-33.1,179.7-33.7,179.1-33.7,178.3z M-31.9,178.3c0-0.2-0.2-0.4-0.4-0.4c-0.2,0-0.4,0.1-0.4,0.4c0,0.2,0.2,0.4,0.4,0.4
		C-32.1,178.7-31.9,178.5-31.9,178.3z"/>
	<path fill="#C2E3DB" d="M-21.6,170.5c-0.8,0-1.4-0.6-1.4-1.4c0-0.8,0.6-1.4,1.4-1.4c0.8,0,1.4,0.6,1.4,1.4
		C-20.2,169.9-20.8,170.5-21.6,170.5z M-21.2,169.1c0-0.2-0.2-0.4-0.4-0.4c-0.2,0-0.4,0.1-0.4,0.4c0,0.2,0.1,0.4,0.4,0.4
		C-21.4,169.5-21.2,169.3-21.2,169.1z"/>
	<path fill="#C2E3DB" d="M-25.5,173.7c0,0.8-0.6,1.4-1.4,1.4c-0.8,0-1.4-0.6-1.4-1.4c0-0.8,0.6-1.4,1.4-1.4
		C-26.2,172.3-25.5,173-25.5,173.7z M-26.5,173.7c0-0.2-0.2-0.4-0.4-0.4c-0.2,0-0.4,0.2-0.4,0.4c0,0.2,0.1,0.4,0.4,0.4
		C-26.7,174.1-26.5,173.9-26.5,173.7z"/>
	<path fill="#C2E3DB" d="M-25.5,169.1c0,0.8-0.6,1.4-1.4,1.4c-0.8,0-1.4-0.6-1.4-1.4c0-0.8,0.6-1.4,1.4-1.4
		C-26.2,167.7-25.5,168.3-25.5,169.1z M-26.5,169.1c0-0.2-0.2-0.4-0.4-0.4c-0.2,0-0.4,0.2-0.4,0.4c0,0.2,0.1,0.4,0.4,0.4
		C-26.7,169.5-26.5,169.4-26.5,169.1z"/>
	<path fill="#C2E3DB" d="M-26.9,181.6c0.8,0,1.4,0.6,1.4,1.4c0,0.8-0.6,1.4-1.4,1.4c-0.8,0-1.4-0.6-1.4-1.4
		C-28.3,182.2-27.7,181.6-26.9,181.6z M-26.9,183.3c0.2,0,0.4-0.2,0.4-0.4c0-0.2-0.1-0.4-0.4-0.4c-0.2,0-0.4,0.2-0.4,0.4
		C-27.3,183.1-27.1,183.3-26.9,183.3z"/>
	<path fill="#C2E3DB" d="M-33.7,173.7c0-0.8,0.6-1.4,1.4-1.4c0.8,0,1.4,0.6,1.4,1.4c0,0.8-0.6,1.4-1.4,1.4
		C-33.1,175.1-33.7,174.5-33.7,173.7z M-32.3,173.3c-0.2,0-0.4,0.2-0.4,0.4c0,0.2,0.1,0.4,0.4,0.4c0.2,0,0.4-0.2,0.4-0.4
		C-31.9,173.5-32.1,173.3-32.3,173.3z"/>
	<path fill="#C2E3DB" d="M-21.6,181.6c0.8,0,1.4,0.6,1.4,1.4c0,0.8-0.6,1.4-1.4,1.4c-0.8,0-1.4-0.6-1.4-1.4
		C-22.9,182.2-22.3,181.6-21.6,181.6z M-21.5,182.6c-0.2,0-0.4,0.2-0.4,0.4c0,0.2,0.1,0.4,0.4,0.4c0.2,0,0.4-0.2,0.4-0.4
		C-21.2,182.8-21.3,182.6-21.5,182.6z"/>
</g>
<g>
	<path fill="#C2E3DB" d="M40.5,192.3c0,0.6,0,1.2,0,1.7c0,0.1,0,0.2,0,0.4c-0.1,0.4-0.3,0.5-0.7,0.4c-0.5-0.2-0.9-0.4-1.4-0.5
		c-0.1,0-0.3,0-0.4,0c-0.4,0.2-0.9,0.3-1.3,0.5c-0.4,0.2-0.7-0.1-0.7-0.5c0-0.6,0-1.3,0-1.9c0,0,0,0,0-0.1c-0.1,0-0.2,0-0.3,0
		c-1.4,0-2.8,0-4.1,0c-0.5,0-0.6-0.2-0.6-0.6c0-8.9,0-17.7,0-26.6c0-0.5,0.2-0.6,0.6-0.6c7,0,14.1,0,21.1,0c0.9,0,1.6,0.7,1.6,1.6
		c0,8.2,0,16.4,0,24.6c0,0.9-0.7,1.6-1.6,1.6c-3.9,0-7.8,0-11.6,0C40.8,192.3,40.6,192.3,40.5,192.3z M34.5,165.5
		c0,8.6,0,17.2,0,25.8c0.1,0,0.2,0,0.3,0c5.9,0,11.7,0,17.6,0c0.6,0,0.8-0.2,0.8-0.8c0-8.1,0-16.2,0-24.3c0-0.6-0.2-0.8-0.7-0.8
		c-5.8,0-11.7,0-17.5,0C34.7,165.5,34.6,165.5,34.5,165.5z M31.8,165.5c0,8.6,0,17.2,0,25.8c0.6,0,1.1,0,1.7,0c0-8.6,0-17.2,0-25.8
		C32.9,165.5,32.4,165.5,31.8,165.5z M39.5,193.6c0-0.5,0-0.9,0-1.3c-0.9,0-1.7,0-2.5,0c0,0.4,0,0.8,0,1.3c0.3-0.1,0.6-0.3,1-0.4
		c0.2-0.1,0.4-0.1,0.6,0C38.8,193.4,39.1,193.5,39.5,193.6z"/>
	<path fill="#C2E3DB" d="M46.5,186.4c1.2,0,2.3,0,3.5,0c0.4,0,0.6,0.2,0.6,0.5c0,0.3-0.2,0.5-0.6,0.5c-2.3,0-4.6,0-6.9,0
		c-0.4,0-0.6-0.2-0.6-0.5c0-0.3,0.2-0.5,0.6-0.5C44.2,186.4,45.3,186.4,46.5,186.4z"/>
	<path fill="#C2E3DB" d="M47.5,189.4c-0.8,0-1.6,0-2.4,0c-0.4,0-0.6-0.2-0.6-0.5c0-0.3,0.2-0.5,0.6-0.5c1.6,0,3.2,0,4.8,0
		c0.4,0,0.6,0.2,0.6,0.5c0,0.3-0.2,0.5-0.6,0.5C49.2,189.4,48.3,189.4,47.5,189.4z"/>
	<text transform="matrix(1 0 0 1 40.8896 180.7779)" fill="#C2E3DB" font-family="'OpenSans-Semibold'" font-size="11.0181px">F</text>
</g>
<g>
	<path fill="#020202" d="M376.8,416.9c0,0.4-0.1,0.6-0.3,0.9c-3.2,4-6.4,7.9-9.6,11.9c-0.5,0.7-1.1,0.8-1.7,0.4
		c-0.5-0.4-0.5-1.1,0-1.7c2.9-3.6,5.8-7.2,8.8-10.8c0.4-0.4,0.3-0.7,0-1.1c-3-3.6-5.9-7.2-8.8-10.9c-0.4-0.4-0.5-0.9-0.2-1.4
		c0.2-0.4,0.6-0.6,1.1-0.5c0.3,0,0.5,0.2,0.7,0.5c3.3,4,6.5,8,9.8,12C376.7,416.4,376.8,416.6,376.8,416.9z"/>
	<path fill="#020202" d="M342.4,430.2c-0.4,0-0.7-0.2-0.9-0.5c-3.3-4-6.5-8-9.8-12c-0.4-0.5-0.4-1,0-1.6c2-2.4,3.9-4.9,5.9-7.3
		c0.5-0.6,1.1-0.7,1.6-0.3c0.5,0.4,0.5,1.1,0,1.7c-1.7,2.1-3.3,4.1-5,6.2c-0.3,0.4-0.4,0.6,0,1c2.9,3.5,5.8,7.1,8.6,10.6
		c0.2,0.2,0.3,0.4,0.4,0.6C343.7,429.4,343.2,430.2,342.4,430.2z"/>
	<path fill="#020202" d="M349.5,424.5c-0.4-0.1-0.7-0.2-0.9-0.6c-0.2-0.5-0.1-0.9,0.2-1.3c0.7-0.9,1.5-1.8,2.2-2.7
		c2.5-3.1,5-6.2,7.5-9.3c0.4-0.5,0.8-0.7,1.4-0.4c0.7,0.3,0.8,1.1,0.2,1.8c-1.5,1.9-3.1,3.8-4.6,5.7c-1.7,2.1-3.3,4.1-5,6.2
		C350.3,424.2,350,424.5,349.5,424.5z"/>
	<path fill="#020202" d="M341.4,407c-0.9,0-1.4-0.9-1-1.6c0.3-0.6,0.8-1.1,1.3-1.6c0.4-0.3,0.8-0.3,1.2,0c0.4,0.3,0.6,0.7,0.5,1.1
		c-0.3,0.8-0.9,1.5-1.6,2C341.7,407,341.5,407,341.4,407z"/>
</g>
<g>
	<path fill="#020202" d="M259.6,402c4,0,7.9,0,11.9,0c1.9,0,3.3,1.4,3.3,3.3c0,7.8,0,15.5,0,23.3c0,1.9-1.4,3.3-3.4,3.3
		c-7.9,0-15.8,0-23.8,0c-1.9,0-3.3-1.4-3.3-3.3c0-7.8,0-15.5,0-23.3c0-1.9,1.4-3.3,3.3-3.3C251.6,402,255.6,402,259.6,402z
		 M259.6,409c-4.3,0-8.7,0-13,0c-0.3,0-0.3,0.1-0.3,0.3c0,6.4,0,12.8,0,19.2c0,1,0.5,1.5,1.5,1.5c7.9,0,15.8,0,23.6,0
		c1,0,1.5-0.5,1.5-1.5c0-6.4,0-12.8,0-19.3c0-0.3-0.1-0.3-0.3-0.3C268.3,409,263.9,409,259.6,409z M259.6,408c4.4,0,8.7,0,13.1,0
		c0.3,0,0.3-0.1,0.3-0.3c0-0.8,0-1.6,0-2.4c0-0.9-0.6-1.5-1.5-1.5c-7.9,0-15.8,0-23.7,0c-0.9,0-1.5,0.6-1.5,1.5c0,0.8,0,1.6,0,2.4
		c0,0.3,0.1,0.3,0.3,0.3C250.9,408,255.2,408,259.6,408z"/>
	<path fill="#020202" d="M248.1,405.7c0.5,0,0.7,0.1,0.7,0.5c0,0.3-0.2,0.5-0.7,0.5c-0.1,0-0.2,0-0.3,0c-0.3,0-0.4-0.3-0.4-0.5
		c0-0.2,0.2-0.4,0.5-0.4C248,405.7,248.1,405.7,248.1,405.7z"/>
	<path fill="#020202" d="M251.4,406.6c-0.1,0-0.2,0-0.3,0c-0.3,0-0.4-0.3-0.4-0.5c0-0.2,0.2-0.4,0.5-0.4c0.1,0,0.3,0,0.4,0
		c0.3,0,0.5,0.2,0.5,0.5c0,0.3-0.2,0.5-0.5,0.5C251.6,406.6,251.5,406.6,251.4,406.6C251.4,406.6,251.4,406.6,251.4,406.6z"/>
	<path fill="#020202" d="M254.7,406.7c-0.1,0-0.2,0-0.3,0c-0.2-0.1-0.4-0.2-0.3-0.5c0-0.2,0.2-0.4,0.4-0.4c0.2,0,0.3,0,0.5,0
		c0.3,0,0.5,0.2,0.5,0.4c0,0.3-0.2,0.5-0.4,0.5C254.9,406.6,254.8,406.6,254.7,406.7C254.7,406.6,254.7,406.6,254.7,406.7z"/>
</g>
<g>
	<path d="M448.6,430.1c-5.6,0-11.2,0-16.9,0c-0.2,0-0.4,0-0.5,0c-0.3-0.1-0.5-0.3-0.6-0.6c0-0.1,0-0.3,0-0.4c0-8.1,0-16.2,0-24.2
		c0-0.8,0.2-1,1-1c11.3,0,22.6,0,33.8,0c0.8,0,1.1,0.2,1.1,1.1c0,8.1,0,16.2,0,24.2c0,0.8-0.2,1-1,1
		C459.9,430.1,454.2,430.1,448.6,430.1z M432.1,411.3c0,5.8,0,11.5,0,17.2c11,0,22,0,32.9,0c0-5.8,0-11.5,0-17.2
		C454.1,411.3,443.1,411.3,432.1,411.3z M465.1,405.3c-11,0-21.9,0-32.9,0c0,1.5,0,3,0,4.5c11,0,21.9,0,32.9,0
		C465.1,408.3,465.1,406.8,465.1,405.3z"/>
	<path d="M452.4,422.4c-3,0-6.1,0-9.1,0c-0.2,0-0.5-0.1-0.7-0.2c-0.1-0.2-0.2-0.5-0.2-0.7c0-0.3,0.3-0.5,0.5-0.5c0.1,0,0.2,0,0.3,0
		c6.1,0,12.1,0,18.2,0c0.6,0,0.9,0.3,0.9,0.8c0,0.4-0.3,0.7-0.7,0.7c-0.1,0-0.2,0-0.4,0C458.3,422.4,455.4,422.4,452.4,422.4z"/>
	<path d="M452.4,415.3c-3,0-6,0-9,0c-0.7,0-1-0.3-1-0.7c0-0.5,0.4-0.7,1-0.7c6,0,12,0,18,0c0.2,0,0.3,0,0.5,0
		c0.3,0.1,0.6,0.4,0.5,0.8c0,0.3-0.3,0.6-0.6,0.6c-0.1,0-0.3,0-0.4,0C458.3,415.3,455.3,415.3,452.4,415.3z"/>
	<path d="M458.9,417.4c0.9,0,1.8,0,2.6,0c0.5,0,0.8,0.3,0.8,0.8c0,0.4-0.3,0.7-0.8,0.7c-1.8,0-3.6,0-5.4,0c-0.5,0-0.8-0.3-0.8-0.7
		c0-0.4,0.3-0.7,0.8-0.7C457.1,417.4,458,417.4,458.9,417.4z"/>
	<path d="M458.9,426c-0.9,0-1.7,0-2.6,0c-0.5,0-0.8-0.3-0.8-0.7c0-0.5,0.3-0.7,0.9-0.7c1.7,0,3.5,0,5.2,0c0.5,0,0.8,0.3,0.8,0.7
		c0,0.5-0.3,0.7-0.9,0.7C460.6,426,459.8,426,458.9,426z"/>
	<path d="M451.5,417.4c0.8,0,1.5,0,2.3,0c0.5,0,0.9,0.3,0.9,0.8c0,0.4-0.3,0.7-0.9,0.7c-1.5,0-3.1,0-4.6,0c-0.5,0-0.8-0.3-0.8-0.7
		c0-0.4,0.3-0.7,0.8-0.7C449.9,417.4,450.7,417.4,451.5,417.4z"/>
	<path d="M451.5,424.5c0.8,0,1.5,0,2.3,0c0.5,0,0.8,0.3,0.8,0.7c0,0.4-0.3,0.8-0.8,0.8c-1.6,0-3.1,0-4.7,0c-0.5,0-0.8-0.3-0.8-0.8
		c0-0.4,0.3-0.7,0.8-0.7C449.9,424.5,450.7,424.5,451.5,424.5z"/>
	<path d="M444.5,417.4c0.4,0,0.9,0,1.3,0c0.5,0,0.8,0.3,0.8,0.7c0,0.4-0.3,0.7-0.8,0.8c-0.9,0-1.8,0-2.7,0c-0.5,0-0.8-0.3-0.8-0.7
		c0-0.4,0.3-0.7,0.8-0.7c0,0,0,0,0.1,0C443.7,417.4,444.1,417.4,444.5,417.4C444.5,417.4,444.5,417.4,444.5,417.4z"/>
	<path d="M444.5,424.5c0.4,0,0.9,0,1.3,0c0.5,0,0.8,0.3,0.8,0.7c0,0.4-0.3,0.8-0.8,0.8c-0.9,0-1.8,0-2.7,0c-0.5,0-0.8-0.3-0.8-0.7
		c0-0.4,0.3-0.7,0.8-0.7C443.6,424.5,444.1,424.5,444.5,424.5z"/>
	<path d="M436.9,422.4c-0.4,0-0.9,0-1.3,0c-0.5,0-0.8-0.3-0.8-0.7c0-0.4,0.3-0.7,0.8-0.7c0.9,0,1.8,0,2.7,0c0.5,0,0.8,0.3,0.8,0.7
		c0,0.4-0.3,0.7-0.8,0.7C437.8,422.4,437.4,422.4,436.9,422.4z"/>
	<path d="M436.9,424.5c0.4,0,0.9,0,1.3,0c0.5,0,0.8,0.3,0.8,0.7c0,0.4-0.3,0.7-0.8,0.7c-0.9,0-1.8,0-2.7,0c-0.5,0-0.8-0.3-0.8-0.7
		c0-0.4,0.3-0.7,0.8-0.7C436.1,424.5,436.5,424.5,436.9,424.5z"/>
	<path d="M436.9,415.3c-0.4,0-0.9,0-1.3,0c-0.5,0-0.8-0.3-0.8-0.7c0-0.4,0.3-0.8,0.8-0.8c0.9,0,1.8,0,2.7,0c0.5,0,0.8,0.3,0.8,0.7
		c0,0.4-0.3,0.7-0.8,0.7C437.8,415.3,437.4,415.3,436.9,415.3z"/>
	<path d="M437,417.4c0.4,0,0.9,0,1.3,0c0.5,0,0.8,0.3,0.8,0.7c0,0.4-0.3,0.8-0.8,0.8c-0.9,0-1.8,0-2.7,0c-0.5,0-0.8-0.3-0.8-0.7
		c0-0.4,0.3-0.7,0.8-0.7c0,0,0,0,0.1,0C436.1,417.4,436.5,417.4,437,417.4z"/>
	<path d="M435.8,406.8c0.6,0,0.9,0.2,0.9,0.7c0,0.3-0.1,0.6-0.4,0.7c-0.4,0.2-0.8,0.2-1.2-0.1c-0.3-0.2-0.3-0.4-0.3-0.7
		C434.9,407,435.2,406.8,435.8,406.8z"/>
	<path d="M442.2,406.8c0.7,0,1.1,0.4,0.9,1c-0.2,0.5-0.6,0.5-1.3,0.4c-0.4,0-0.6-0.4-0.6-0.8C441.2,407,441.5,406.8,442.2,406.8z"/>
	<path d="M439,408.3c-0.1,0-0.2,0-0.3,0c-0.4,0-0.7-0.4-0.7-0.7c0-0.4,0.3-0.7,0.7-0.7c0.2,0,0.3,0,0.5,0c0.4,0,0.7,0.3,0.7,0.7
		c0,0.4-0.3,0.7-0.7,0.7C439.1,408.3,439,408.3,439,408.3C439,408.3,439,408.3,439,408.3z"/>
</g>
<g>
	<path d="M542.8,429.7c-3.5,0.1-6.9-1-10.2-2.8c-3.8-2.1-7.3-4.7-10.2-8c-1.1-1.3-1.1-2.8,0-4c3.5-3.8,7.6-7,12.4-9
		c6-2.5,12-2.2,17.9,0.6c3.4,1.6,6.5,3.9,9.2,6.5c0.6,0.6,1.3,1.3,1.9,1.9c1.2,1.3,1.2,2.8,0,4c-4,4.4-8.6,7.8-14.3,9.8
		C547.4,429.4,545.3,429.7,542.8,429.7z M543.1,427.1c1.8,0,3.5-0.3,5.3-0.8c2.4-0.7,4.6-1.8,6.6-3.2c2.4-1.6,4.8-3.5,6.7-5.7
		c0.4-0.5,0.4-0.5,0-1c-0.4-0.5-0.9-1-1.4-1.4c-2.8-2.7-5.9-4.9-9.5-6.5c-4-1.8-8-2.2-12.2-1.1c-3.2,0.8-6.1,2.4-8.7,4.3
		c-2,1.4-3.8,3-5.5,4.9c-0.2,0.3-0.3,0.4,0,0.7c2.9,3.3,6.4,5.9,10.4,7.9C537.4,426.4,540.2,427.1,543.1,427.1z"/>
	<path d="M551.3,416.9c0,4.5-3.6,8.2-8.2,8.2c-4.6,0-8.3-3.6-8.3-8.1c0-4.7,3.6-8.3,8.3-8.3C547.7,408.7,551.3,412.4,551.3,416.9z
		 M543.2,411.3c-3.1,0-5.7,2.5-5.7,5.6c0,3,2.5,5.6,5.6,5.7c3,0.1,5.6-2.5,5.6-5.6C548.8,413.9,546.3,411.4,543.2,411.3z"/>
</g>
<g>
	<path d="M647.4,428.5c0-7.7,0-15.5,0-23.2c-0.6,0-1.1,0-1.6,0c-0.7,0-1.4-0.5-1.5-1.3c-0.2-0.7,0.2-1.5,0.9-1.8
		c0.2-0.1,0.5-0.2,0.7-0.2c1.1,0,2.1,0,3.2,0c0.9,0,1.6,0.7,1.6,1.6c0,8.8,0,17.6,0,26.4c0,0.9-0.7,1.6-1.6,1.6c-1.1,0-2.1,0-3.2,0
		c-0.9,0-1.7-0.7-1.7-1.6c0-0.9,0.7-1.6,1.7-1.6C646.4,428.5,646.9,428.5,647.4,428.5z"/>
	<path d="M627.8,405.3c0,7.8,0,15.5,0,23.2c0.5,0,1.1,0,1.6,0c0.7,0,1.3,0.5,1.6,1.2c0.3,1-0.4,2.1-1.5,2.1c-1.1,0-2.3,0-3.4,0
		c-0.8,0-1.5-0.7-1.5-1.6c0-0.1,0-0.2,0-0.2c0-8.7,0-17.4,0-26.1c0-1.1,0.8-1.9,1.8-1.8c1,0,2,0,3,0c1,0,1.7,0.7,1.7,1.6
		c0,0.9-0.7,1.6-1.7,1.6C628.8,405.3,628.4,405.3,627.8,405.3z"/>
</g>
<circle cx="302.4" cy="419.5" r="2.7"/>
<circle cx="408.4" cy="419.5" r="2.7"/>
<circle cx="494.4" cy="419.5" r="2.7"/>
<circle cx="595.4" cy="419.5" r="2.7"/>
<path d="M-177.9,531c0,6.6,0,13.1,0,19.6c-6.5,0-13.1,0-19.6,0c0-6.5,0-13,0-19.6C-191,531-184.5,531-177.9,531z"/>
<path d="M-197.5,527c0-1.3,0-2.6,0-3.9c13.1,0,26.2,0,39.3,0c0,1.3,0,2.6,0,3.9C-171.3,527-184.4,527-197.5,527z"/>
<path d="M-158.2,531c0,1.3,0,2.6,0,3.9c-5.2,0-10.4,0-15.7,0c0-1.3,0-2.5,0-3.9C-168.7,531-163.5,531-158.2,531z"/>
<path d="M-173.9,542.8c0-1.3,0-2.6,0-3.9c5.2,0,10.4,0,15.7,0c0,1.3,0,2.5,0,3.9C-163.5,542.8-168.7,542.8-173.9,542.8z"/>
<g>
	<defs>
		<rect id="SVGID_2_" x="-210.9" y="507.1" width="60.6" height="53.6"/>
	</defs>
	<clipPath id="SVGID_3_">
		<use xlink:href="#SVGID_2_"  overflow="visible"/>
	</clipPath>
	<path clip-path="url(#SVGID_3_)" d="M-205.4,511.3c18.4,0,36.7,0,55.1,0c0,2.6,0,5.2,0,7.8c2.6,0,5.2,0,7.9,0c0,0.3,0,0.5,0,0.7
		c0,10.9,0,21.7,0,32.6c0,3.5-2.6,6.1-6.1,6.1c-17.6,0-35.2,0-52.7,0c-2.5,0-4.1-1.7-4.1-4.1c0-14.1,0-28.3,0-42.4
		C-205.4,511.8-205.4,511.6-205.4,511.3z M-154.3,554.6c0-13.1,0-26.2,0-39.3c-15.7,0-31.4,0-47.1,0c0,13.1,0,26.2,0,39.3
		C-185.7,554.6-170,554.6-154.3,554.6z"/>
	<path clip-path="url(#SVGID_3_)" d="M-173.9,550.6c0-1.3,0-2.6,0-3.9c3.9,0,7.8,0,11.8,0c0,1.3,0,2.6,0,3.9
		C-166.1,550.6-170,550.6-173.9,550.6z"/>
</g>
</svg>
