<?xml version="1.0" encoding="utf-8"?>
<!-- Generator: Adobe Illustrator 19.1.0, SVG Export Plug-In . SVG Version: 6.00 Build 0)  -->
<svg version="1.1" id="Layer_1" xmlns="http://www.w3.org/2000/svg" xmlns:xlink="http://www.w3.org/1999/xlink" x="0px" y="0px"
	 viewBox="-361 273.9 68.7 67.1" enable-background="new -361 273.9 68.7 67.1" xml:space="preserve">
<g>
	<path fill="#003333" d="M-327.1,327.2c-5.4,0.1-10.8-1.5-15.9-4.3c-5.9-3.2-11.2-7.3-15.8-12.4c-1.8-2-1.8-4.3,0-6.3
		c5.5-6,11.7-10.9,19.2-14c9.3-3.9,18.6-3.4,27.7,0.9c5.3,2.5,10,6,14.3,10.1c1,1,2,2,2.9,3c1.8,2,1.8,4.3,0,6.3
		c-6.2,6.8-13.4,12.1-22.1,15.1C-319.9,326.8-323.2,327.3-327.1,327.2z M-326.6,323.2c2.8,0,5.5-0.4,8.1-1.2c3.7-1.1,7.1-2.8,10.3-5
		c3.8-2.6,7.4-5.4,10.4-8.8c0.6-0.7,0.7-0.8,0-1.5c-0.7-0.8-1.4-1.5-2.1-2.2c-4.3-4.2-9.2-7.6-14.7-10.1c-6.1-2.7-12.4-3.4-18.9-1.8
		c-4.9,1.3-9.4,3.7-13.5,6.6c-3.1,2.2-6,4.7-8.5,7.6c-0.3,0.4-0.4,0.7,0,1.1c4.6,5.1,9.9,9.2,16.1,12.2
		C-335.4,322.1-331.1,323.2-326.6,323.2z"/>
	<path fill="#003333" d="M-313.9,307.5c0,7.1-5.6,12.7-12.7,12.7s-12.8-5.6-12.8-12.5c0-7.3,5.6-12.9,12.8-12.9
		C-319.5,294.7-313.9,300.4-313.9,307.5z M-326.5,298.7c-4.8-0.1-8.8,3.8-8.8,8.7c-0.1,4.7,3.9,8.7,8.7,8.8c4.7,0.1,8.6-3.8,8.7-8.6
		C-317.9,302.8-321.7,298.8-326.5,298.7z"/>
</g>
</svg>
