<?xml version="1.0" encoding="utf-8"?>
<!-- Generator: Adobe Illustrator 19.1.0, SVG Export Plug-In . SVG Version: 6.00 Build 0)  -->
<svg version="1.1" id="Layer_1" xmlns="http://www.w3.org/2000/svg" xmlns:xlink="http://www.w3.org/1999/xlink" x="0px" y="0px"
	 viewBox="-111 519.4 469.5 307.5" enable-background="new -111 519.4 469.5 307.5" xml:space="preserve">
<g>
	<path fill="#1E1E1E" d="M342,722.2c0.1,0.7-0.3,1.1-0.6,1.6c-5.9,7.2-11.7,14.5-17.6,21.7c-1,1.2-2.1,1.4-3,0.6c-1-0.8-1-2,0-3.2
		c5.3-6.6,10.7-13.2,16-19.8c0.6-0.8,0.6-1.2,0-1.9c-5.4-6.6-10.7-13.2-16.1-19.8c-0.6-0.8-0.9-1.6-0.3-2.5c0.4-0.8,1.2-1,2-0.9
		c0.6,0.1,1,0.4,1.3,0.9c5.9,7.3,11.9,14.7,17.8,22C341.8,721.3,342,721.7,342,722.2z"/>
	<path fill="#1E1E1E" d="M279.1,746.6c-0.7,0-1.3-0.4-1.7-0.9c-5.9-7.3-11.9-14.7-17.8-22c-0.8-0.9-0.7-1.9,0-2.8
		c3.6-4.4,7.2-8.9,10.8-13.3c0.9-1.1,2.1-1.3,3-0.6c1,0.8,1,1.9,0.1,3.1c-3,3.8-6.1,7.5-9.2,11.3c-0.6,0.7-0.7,1.1-0.1,1.9
		c5.3,6.5,10.5,13,15.8,19.5c0.3,0.4,0.6,0.7,0.8,1.1C281.5,745.1,280.6,746.6,279.1,746.6z"/>
	<path fill="#1E1E1E" d="M292.2,736.1c-0.6-0.1-1.3-0.4-1.6-1.1c-0.5-0.8-0.3-1.6,0.3-2.3c1.3-1.7,2.7-3.3,4-5
		c4.6-5.6,9.2-11.3,13.7-17c0.7-0.9,1.5-1.3,2.6-0.8c1.3,0.6,1.5,2,0.4,3.4c-2.8,3.4-5.6,6.9-8.4,10.3c-3.1,3.8-6.1,7.5-9.2,11.3
		C293.7,735.6,293.1,736,292.2,736.1z"/>
	<path fill="#1E1E1E" d="M277.4,704.1c-1.6,0-2.6-1.6-1.8-2.9c0.6-1.1,1.4-2.1,2.4-2.9c0.7-0.6,1.5-0.5,2.2-0.1
		c0.7,0.5,1.1,1.2,0.8,2c-0.6,1.5-1.6,2.7-2.9,3.6C277.9,704.1,277.5,704.1,277.4,704.1z"/>
</g>
<g>
	<path fill="#1E1E1E" d="M-64,608.2c8.5,0,17.1,0,25.6,0c4.1,0,7.2,3,7.2,7.1c0,16.7,0,33.5,0,50.2c0,4.2-3,7.2-7.2,7.2
		c-17,0-34.1,0-51.1,0c-4.1,0-7.2-3-7.2-7.2c0-16.7,0-33.5,0-50.2c0-4.1,3.1-7.2,7.2-7.2C-81,608.2-72.5,608.2-64,608.2z M-64,623.3
		c-9.3,0-18.7,0-28,0c-0.6,0-0.7,0.1-0.7,0.7c0,13.8,0,27.6,0,41.3c0,2.2,1.2,3.3,3.3,3.3c17,0,33.9,0,50.9,0c2.1,0,3.3-1.2,3.3-3.3
		c0-13.8,0-27.6,0-41.5c0-0.5-0.1-0.7-0.7-0.7C-45.2,623.3-54.6,623.3-64,623.3z M-64,621.3c9.4,0,18.7,0,28.1,0
		c0.6,0,0.7-0.2,0.7-0.7c0-1.7,0-3.5,0-5.2c0-2-1.2-3.2-3.2-3.2c-17,0-34.1,0-51.1,0c-2,0-3.2,1.2-3.2,3.2c0,1.7,0,3.5,0,5.2
		c0,0.6,0.1,0.7,0.7,0.7C-82.7,621.3-73.3,621.3-64,621.3z"/>
	<path fill="#1E1E1E" d="M-88.6,616.3c1,0,1.5,0.3,1.5,1c0,0.7-0.5,1-1.6,1c-0.2,0-0.4,0-0.6,0c-0.6-0.1-0.9-0.6-0.9-1.1
		c0-0.5,0.5-0.9,1-0.9C-88.9,616.3-88.7,616.3-88.6,616.3z"/>
	<path fill="#1E1E1E" d="M-81.6,618.3c-0.2,0-0.4,0-0.6,0c-0.5-0.1-0.9-0.6-0.9-1.1c0-0.5,0.5-0.9,1-0.9c0.3,0,0.6,0,0.9,0
		c0.7,0,1.1,0.4,1.1,1c0,0.6-0.4,1-1.1,1C-81.2,618.3-81.4,618.3-81.6,618.3C-81.6,618.3-81.6,618.3-81.6,618.3z"/>
	<path fill="#1E1E1E" d="M-74.5,618.3c-0.3,0-0.5,0-0.8-0.1c-0.5-0.1-0.8-0.5-0.7-1.1c0-0.5,0.4-0.8,0.9-0.9c0.3,0,0.7,0,1,0
		c0.6,0,1,0.4,1.1,0.9c0,0.5-0.4,1-1,1.1C-74.1,618.3-74.3,618.3-74.5,618.3C-74.5,618.3-74.5,618.3-74.5,618.3z"/>
</g>
<g>
	<path fill="#1E1E1E" d="M19.2,798.5c-12.1,0-24.2,0-36.3,0c-0.4,0-0.8,0-1.1-0.1c-0.7-0.1-1.1-0.6-1.2-1.3c0-0.3,0-0.6,0-0.8
		c0-17.4,0-34.8,0-52.2c0-1.8,0.5-2.2,2.2-2.2c24.3,0,48.6,0,72.9,0c1.8,0,2.3,0.5,2.3,2.3c0,17.4,0,34.8,0,52.2
		c0,1.7-0.5,2.2-2.2,2.2C43.5,798.5,31.3,798.5,19.2,798.5z M-16.3,758.1c0,12.4,0,24.8,0,37.1c23.7,0,47.3,0,70.9,0
		c0-12.4,0-24.7,0-37.1C30.9,758.1,7.3,758.1-16.3,758.1z M54.6,745.1c-23.7,0-47.3,0-70.9,0c0,3.3,0,6.5,0,9.8
		c23.7,0,47.3,0,70.9,0C54.6,751.6,54.6,748.4,54.6,745.1z"/>
	<path fill="#1E1E1E" d="M27.3,782c-6.5,0-13.1,0-19.6,0c-0.5,0-1.1-0.2-1.4-0.5c-0.3-0.3-0.4-1-0.4-1.5c0-0.6,0.6-1,1.2-1.1
		c0.2,0,0.5,0,0.7,0c13.1,0,26.1,0,39.2,0c1.2,0,1.9,0.6,1.9,1.6c0,0.8-0.6,1.4-1.4,1.5c-0.2,0-0.5,0-0.8,0
		C40.1,782,33.7,782,27.3,782z"/>
	<path fill="#1E1E1E" d="M27.3,766.7c-6.5,0-12.9,0-19.4,0c-1.4,0-2.2-0.6-2.2-1.6c0-1,0.8-1.6,2.2-1.6c12.9,0,25.8,0,38.7,0
		c0.3,0,0.7,0,1,0.1c0.8,0.2,1.2,0.9,1.1,1.7c-0.1,0.7-0.6,1.3-1.4,1.4c-0.3,0-0.6,0-0.9,0C40.1,766.7,33.7,766.7,27.3,766.7z"/>
	<path fill="#1E1E1E" d="M41.4,771.2c1.9,0,3.8,0,5.7,0c1.1,0,1.7,0.7,1.7,1.7c-0.1,0.8-0.7,1.5-1.6,1.5c-3.9,0-7.7,0-11.6,0
		c-1,0-1.6-0.7-1.6-1.6c0-0.9,0.6-1.6,1.7-1.6C37.5,771.2,39.5,771.2,41.4,771.2z"/>
	<path fill="#1E1E1E" d="M41.3,789.7c-1.9,0-3.7,0-5.6,0c-1.1,0-1.8-0.6-1.8-1.6c0-1,0.7-1.6,1.8-1.6c3.7,0,7.4,0,11.2,0
		c1.1,0,1.8,0.6,1.8,1.6c0,1-0.7,1.6-1.8,1.6C45,789.7,43.2,789.7,41.3,789.7z"/>
	<path fill="#1E1E1E" d="M25.3,771.2c1.6,0,3.3,0,4.9,0c1.1,0,1.9,0.7,1.9,1.6c0,0.9-0.7,1.6-1.9,1.6c-3.3,0-6.6,0-9.9,0
		c-1.1,0-1.8-0.7-1.8-1.6c0-1,0.7-1.6,1.8-1.6C22,771.2,23.7,771.2,25.3,771.2z"/>
	<path fill="#1E1E1E" d="M25.3,786.5c1.7,0,3.3,0,5,0c1,0,1.8,0.6,1.8,1.5c0,0.9-0.7,1.6-1.8,1.6c-3.3,0-6.7,0-10,0
		c-1.1,0-1.8-0.7-1.8-1.6c0-0.9,0.7-1.5,1.8-1.5C22,786.5,23.6,786.5,25.3,786.5z"/>
	<path fill="#1E1E1E" d="M10.4,771.2c1,0,1.9,0,2.9,0c1,0,1.7,0.6,1.7,1.5c0,0.9-0.7,1.6-1.7,1.6c-1.9,0-3.9,0-5.8,0
		c-1,0-1.7-0.7-1.7-1.6c0-0.9,0.7-1.5,1.7-1.6c0.1,0,0.1,0,0.2,0C8.5,771.2,9.5,771.2,10.4,771.2C10.4,771.2,10.4,771.2,10.4,771.2z
		"/>
	<path fill="#1E1E1E" d="M10.4,786.5c1,0,1.9,0,2.9,0c1,0,1.7,0.6,1.7,1.5c0,0.9-0.7,1.6-1.7,1.6c-2,0-3.9,0-5.9,0
		c-1,0-1.7-0.7-1.7-1.6c0-0.9,0.7-1.6,1.7-1.6C8.4,786.5,9.4,786.5,10.4,786.5z"/>
	<path fill="#1E1E1E" d="M-6,782c-1,0-1.9,0-2.9,0c-1,0-1.6-0.7-1.6-1.6c0-0.9,0.7-1.6,1.7-1.6c1.9,0,3.8,0,5.7,0
		c1,0,1.7,0.7,1.7,1.5c0,0.9-0.7,1.6-1.7,1.6C-4.1,782-5,782-6,782z"/>
	<path fill="#1E1E1E" d="M-5.9,786.5c1,0,1.9,0,2.9,0c1,0,1.7,0.7,1.7,1.6c0,0.9-0.7,1.6-1.7,1.6c-1.9,0-3.9,0-5.8,0
		c-1,0-1.6-0.7-1.6-1.6c0-0.9,0.7-1.5,1.7-1.5C-7.8,786.5-6.9,786.5-5.9,786.5z"/>
	<path fill="#1E1E1E" d="M-6,766.7c-0.9,0-1.9,0-2.8,0c-1,0-1.7-0.6-1.7-1.5c0-0.9,0.6-1.6,1.7-1.6c1.9,0,3.8,0,5.7,0
		c1,0,1.7,0.7,1.7,1.6c0,0.9-0.7,1.6-1.7,1.6C-4.1,766.8-5,766.7-6,766.7z"/>
	<path fill="#1E1E1E" d="M-5.9,771.2c0.9,0,1.9,0,2.8,0c1,0,1.7,0.7,1.7,1.5c0,0.9-0.7,1.6-1.7,1.6c-1.9,0-3.8,0-5.7,0
		c-1,0-1.7-0.7-1.7-1.6c0-0.9,0.6-1.6,1.7-1.6c0.1,0,0.1,0,0.2,0C-7.7,771.2-6.8,771.2-5.9,771.2z"/>
	<path fill="#1E1E1E" d="M-8.4,748.4c1.2,0,1.9,0.5,2,1.4c0,0.7-0.2,1.2-0.8,1.5c-0.9,0.4-1.8,0.4-2.7-0.1c-0.6-0.4-0.7-1-0.6-1.6
		C-10.3,748.8-9.6,748.4-8.4,748.4z"/>
	<path fill="#1E1E1E" d="M5.3,748.4c1.6,0,2.4,1,1.9,2.1c-0.5,1.1-1.3,1.1-2.7,1c-0.8-0.1-1.3-0.8-1.2-1.6
		C3.3,748.9,4,748.4,5.3,748.4z"/>
	<path fill="#1E1E1E" d="M-1.6,751.5c-0.2,0-0.5,0-0.7,0c-0.8-0.1-1.4-0.8-1.4-1.6c0-0.8,0.7-1.5,1.5-1.5c0.3,0,0.7,0,1.1,0
		c0.9,0,1.6,0.7,1.6,1.6c0,0.9-0.6,1.5-1.6,1.6C-1.3,751.6-1.4,751.5-1.6,751.5C-1.6,751.5-1.6,751.5-1.6,751.5z"/>
</g>
<g>
	<path fill="#1E1E1E" d="M92.8,573.5c-5.4,0.1-10.8-1.6-15.8-4.3c-5.9-3.2-11.2-7.3-15.8-12.4c-1.8-2-1.8-4.3,0-6.3
		c5.5-6,11.7-10.9,19.2-14c9.3-3.9,18.6-3.4,27.7,0.9c5.3,2.5,10,6,14.3,10.1c1,1,2,2,2.9,3c1.8,2,1.8,4.3,0,6.3
		c-6.2,6.8-13.4,12.1-22.1,15.1C100,573,96.7,573.5,92.8,573.5z M93.3,569.4c2.8,0,5.5-0.4,8.1-1.2c3.7-1.1,7.1-2.8,10.3-5
		c3.8-2.6,7.4-5.4,10.4-8.8c0.6-0.7,0.7-0.8,0-1.5c-0.7-0.8-1.4-1.5-2.1-2.2c-4.3-4.2-9.2-7.6-14.7-10.1c-6.1-2.7-12.4-3.4-18.9-1.8
		c-4.9,1.3-9.4,3.7-13.5,6.6c-3.1,2.2-6,4.7-8.5,7.6c-0.3,0.4-0.4,0.7,0,1.1c4.6,5.1,9.9,9.2,16.1,12.2
		C84.5,568.4,88.8,569.5,93.3,569.4z"/>
	<path fill="#1E1E1E" d="M106,553.7c0,7.1-5.6,12.7-12.7,12.7c-7.1,0-12.8-5.6-12.8-12.5c0-7.3,5.6-12.9,12.8-12.9
		C100.4,540.9,106,546.6,106,553.7z M93.4,545c-4.8-0.1-8.8,3.8-8.8,8.7c-0.1,4.7,3.9,8.7,8.7,8.8c4.7,0.1,8.6-3.8,8.7-8.6
		C102,549,98.2,545,93.4,545z"/>
</g>
<g>
	<path fill="none" stroke="#1C1C1C" stroke-width="4" stroke-miterlimit="10" d="M133.9,717.2c-15.7,0-31.4,0-47,0
		c-3.7,0-6.5-2.7-6.3-6.3c0-0.9,0.3-1.8,0.7-2.6c3.9-8.8,7.8-17.6,11.7-26.5c0.7-1.6,1.7-2.7,3.3-3.5c6-3.1,12-6.2,18-9.4
		c0.8-0.4,1.4-0.3,2.1,0.2c6,4.3,12.6,6.3,20,5.7c5.5-0.4,10.4-2.3,14.9-5.5c1-0.8,1.8-0.8,3-0.2c5.9,3.1,11.8,6.2,17.7,9.3
		c1.4,0.7,2.3,1.7,2.9,3.1c4,8.9,8,17.9,11.9,26.8c2,4.5-0.9,8.8-5.8,8.8C165.2,717.2,149.5,717.2,133.9,717.2z"/>
	<path fill="none" stroke="#1C1C1C" stroke-width="4" stroke-miterlimit="10" d="M133.4,611.4c4.8,0,8.9,0.6,12.7,2.6
		c5.2,2.7,8.4,7,9.9,12.5c2.4,8.3,2.7,16.6-0.5,24.8c-2.1,5.5-5.6,9.9-10.7,13c-8.4,5.2-19.1,3.9-26.2-3.2
		c-6.6-6.5-9.1-14.5-8.8-23.6c0.1-4.3,0.7-8.6,2.2-12.7c2.9-7.8,8.6-12,16.8-13.2c0.6-0.1,1.2-0.2,1.8-0.2
		C131.8,611.4,132.9,611.4,133.4,611.4z"/>
</g>
<path fill="none" stroke="#1C1C1C" stroke-width="4" stroke-linecap="round" stroke-miterlimit="10" d="M204.1,563.2
	c7.4,1.9,14.6,4.1,21.6,6.5"/>
<path fill="none" stroke="#1C1C1C" stroke-width="4" stroke-linecap="round" stroke-miterlimit="10" d="M138.8,553.9
	c20.2,0.8,39.6,3.4,57.7,7.5"/>
<path fill="none" stroke="#1C1C1C" stroke-width="4" stroke-linecap="round" stroke-miterlimit="10" d="M-15,589.7
	c19.5-12.1,43.2-21.6,69.5-27.9"/>
<path fill="none" stroke="#1C1C1C" stroke-width="4" stroke-linecap="round" stroke-miterlimit="10" d="M-29.1,599.4
	c3.1-2.4,6.4-4.7,9.9-7"/>
<path fill="none" stroke="#1C1C1C" stroke-width="4" stroke-linecap="round" stroke-miterlimit="10" d="M-65.7,705.2
	c-3-7-5-14.3-5.9-21.8"/>
<path fill="none" stroke="#1C1C1C" stroke-width="4" stroke-linecap="round" stroke-miterlimit="10" d="M-46.4,734.2
	c-7.3-7.9-13.3-16.3-17.6-25.2"/>
<path fill="none" stroke="#1C1C1C" stroke-width="4" stroke-linecap="round" stroke-miterlimit="10" d="M-28.8,750
	c-2.9-2.2-5.6-4.4-8.2-6.7"/>
<path fill="none" stroke="#1C1C1C" stroke-width="4" stroke-linecap="round" stroke-miterlimit="10" d="M191,789
	c-20.2,4.2-41.9,6.5-64.5,6.5c-20.4,0-40.1-1.9-58.7-5.4"/>
<path fill="none" stroke="#1C1C1C" stroke-width="4" stroke-linecap="round" stroke-miterlimit="10" d="M261,763.5
	c-13.3,7.5-28.3,13.8-44.6,18.9"/>
<path fill="none" stroke="#1C1C1C" stroke-width="4" stroke-linecap="round" stroke-miterlimit="10" d="M322.8,656.2
	c1.5,6,2.3,12.2,2.3,18.4"/>
<path fill="none" stroke="#1C1C1C" stroke-width="4" stroke-linecap="round" stroke-miterlimit="10" d="M296.7,612.2
	c7.7,7.8,14,16.1,18.7,24.9"/>
<g>
	<path fill="#1E1E1E" stroke="#1C1C1C" stroke-width="4" stroke-linecap="round" stroke-miterlimit="10" d="M248,605.7
		c-1.7,0-3.1-1.4-3.1-3.1v-25.9c0-1.7,1.4-3.1,3.1-3.1"/>
	<path fill="#1E1E1E" stroke="#1C1C1C" stroke-width="4" stroke-linecap="round" stroke-miterlimit="10" d="M273.9,573.7
		c1.7,0,3.1,1.4,3.1,3.1v25.9c0,1.7-1.4,3.1-3.1,3.1"/>
</g>
</svg>
