<?xml version="1.0" encoding="utf-8"?>
<!-- Generator: Adobe Illustrator 19.1.0, SVG Export Plug-In . SVG Version: 6.00 Build 0)  -->
<svg version="1.1" id="Layer_1" xmlns="http://www.w3.org/2000/svg" xmlns:xlink="http://www.w3.org/1999/xlink" x="0px" y="0px"
	 viewBox="0 0 68.7 67.1" enable-background="new 0 0 68.7 67.1" xml:space="preserve">
<g>
	<path fill="#6880BF" d="M34.7,0.8c8.5,0,17.1,0,25.6,0c4.1,0,7.2,3,7.2,7.1c0,16.7,0,33.5,0,50.2c0,4.2-3,7.2-7.2,7.2
		c-17,0-34.1,0-51.1,0c-4.1,0-7.2-3-7.2-7.2c0-16.7,0-33.5,0-50.2c0-4.1,3-7.2,7.2-7.2C17.6,0.8,26.1,0.8,34.7,0.8z M34.6,15.9
		c-9.3,0-18.7,0-28,0c-0.6,0-0.7,0.1-0.7,0.7c0,13.8,0,27.6,0,41.3c0,2.2,1.2,3.3,3.3,3.3c17,0,33.9,0,50.9,0c2.1,0,3.3-1.2,3.3-3.3
		c0-13.8,0-27.6,0-41.5c0-0.5-0.1-0.7-0.7-0.7C53.4,15.9,44,15.9,34.6,15.9z M34.6,13.9c9.4,0,18.7,0,28.1,0c0.6,0,0.7-0.2,0.7-0.7
		c0-1.7,0-3.5,0-5.2c0-2-1.2-3.2-3.2-3.2c-17,0-34.1,0-51.1,0C7.1,4.8,5.9,6,5.9,8c0,1.7,0,3.5,0,5.2c0,0.6,0.1,0.7,0.7,0.7
		C15.9,13.9,25.3,13.9,34.6,13.9z"/>
	<path fill="#6880BF" d="M10,8.9c1,0,1.5,0.3,1.5,1c0,0.7-0.5,1-1.6,1c-0.2,0-0.4,0-0.6,0c-0.6-0.1-0.9-0.6-0.9-1.1
		c0-0.5,0.5-0.9,1-0.9C9.7,8.9,9.9,8.9,10,8.9z"/>
	<path fill="#6880BF" d="M17.1,10.9c-0.2,0-0.4,0-0.6,0c-0.5-0.1-0.9-0.6-0.9-1.1c0-0.5,0.5-0.9,1-0.9c0.3,0,0.6,0,0.9,0
		c0.7,0,1.1,0.4,1.1,1c0,0.6-0.4,1-1.1,1C17.4,10.9,17.2,10.9,17.1,10.9C17.1,10.9,17.1,10.9,17.1,10.9z"/>
	<path fill="#6880BF" d="M24.2,10.9c-0.3,0-0.5,0-0.8-0.1c-0.5-0.1-0.8-0.5-0.7-1.1c0-0.5,0.4-0.8,0.9-0.9c0.3,0,0.7,0,1,0
		c0.6,0,1,0.4,1.1,0.9c0,0.5-0.4,1-1,1.1C24.5,10.9,24.3,10.9,24.2,10.9C24.2,10.9,24.2,10.9,24.2,10.9z"/>
</g>
</svg>
