<?xml version="1.0" encoding="utf-8"?>
<!-- Generator: Adobe Illustrator 19.1.0, SVG Export Plug-In . SVG Version: 6.00 Build 0)  -->
<svg version="1.1" id="Layer_1" xmlns="http://www.w3.org/2000/svg" xmlns:xlink="http://www.w3.org/1999/xlink" x="0px" y="0px"
	 viewBox="193.6 367.2 510 96.5" enable-background="new 193.6 367.2 510 96.5" xml:space="preserve">
<g>
	<path fill="#020202" d="M376.8,416.9c0,0.4-0.1,0.6-0.3,0.9c-3.2,4-6.4,7.9-9.6,11.9c-0.5,0.7-1.1,0.8-1.7,0.4
		c-0.5-0.4-0.5-1.1,0-1.7c2.9-3.6,5.8-7.2,8.8-10.8c0.4-0.4,0.3-0.7,0-1.1c-3-3.6-5.9-7.2-8.8-10.9c-0.4-0.4-0.5-0.9-0.2-1.4
		c0.2-0.4,0.6-0.6,1.1-0.5c0.3,0,0.5,0.2,0.7,0.5c3.3,4,6.5,8,9.8,12C376.7,416.4,376.8,416.6,376.8,416.9z"/>
	<path fill="#020202" d="M342.4,430.2c-0.4,0-0.7-0.2-0.9-0.5c-3.3-4-6.5-8-9.8-12c-0.4-0.5-0.4-1,0-1.6c2-2.4,3.9-4.9,5.9-7.3
		c0.5-0.6,1.1-0.7,1.6-0.3c0.5,0.4,0.5,1.1,0,1.7c-1.7,2.1-3.3,4.1-5,6.2c-0.3,0.4-0.4,0.6,0,1c2.9,3.5,5.8,7.1,8.6,10.6
		c0.2,0.2,0.3,0.4,0.4,0.6C343.7,429.4,343.2,430.2,342.4,430.2z"/>
	<path fill="#020202" d="M349.5,424.5c-0.4-0.1-0.7-0.2-0.9-0.6c-0.2-0.5-0.1-0.9,0.2-1.3c0.7-0.9,1.5-1.8,2.2-2.7
		c2.5-3.1,5-6.2,7.5-9.3c0.4-0.5,0.8-0.7,1.4-0.4c0.7,0.3,0.8,1.1,0.2,1.8c-1.5,1.9-3.1,3.8-4.6,5.7c-1.7,2.1-3.3,4.1-5,6.2
		C350.3,424.2,350,424.5,349.5,424.5z"/>
	<path fill="#020202" d="M341.4,407c-0.9,0-1.4-0.9-1-1.6c0.3-0.6,0.8-1.1,1.3-1.6c0.4-0.3,0.8-0.3,1.2,0c0.4,0.3,0.6,0.7,0.5,1.1
		c-0.3,0.8-0.9,1.5-1.6,2C341.7,407,341.5,407,341.4,407z"/>
</g>
<g>
	<path fill="#020202" d="M259.6,402c4,0,7.9,0,11.9,0c1.9,0,3.3,1.4,3.3,3.3c0,7.8,0,15.5,0,23.3c0,1.9-1.4,3.3-3.4,3.3
		c-7.9,0-15.8,0-23.8,0c-1.9,0-3.3-1.4-3.3-3.3c0-7.8,0-15.5,0-23.3c0-1.9,1.4-3.3,3.3-3.3C251.6,402,255.6,402,259.6,402z
		 M259.6,409c-4.3,0-8.7,0-13,0c-0.3,0-0.3,0.1-0.3,0.3c0,6.4,0,12.8,0,19.2c0,1,0.5,1.5,1.5,1.5c7.9,0,15.8,0,23.6,0
		c1,0,1.5-0.5,1.5-1.5c0-6.4,0-12.8,0-19.3c0-0.3-0.1-0.3-0.3-0.3C268.3,409,263.9,409,259.6,409z M259.6,408c4.4,0,8.7,0,13.1,0
		c0.3,0,0.3-0.1,0.3-0.3c0-0.8,0-1.6,0-2.4c0-0.9-0.6-1.5-1.5-1.5c-7.9,0-15.8,0-23.7,0c-0.9,0-1.5,0.6-1.5,1.5c0,0.8,0,1.6,0,2.4
		c0,0.3,0.1,0.3,0.3,0.3C250.9,408,255.2,408,259.6,408z"/>
	<path fill="#020202" d="M248.1,405.7c0.5,0,0.7,0.1,0.7,0.5c0,0.3-0.2,0.5-0.7,0.5c-0.1,0-0.2,0-0.3,0c-0.3,0-0.4-0.3-0.4-0.5
		c0-0.2,0.2-0.4,0.5-0.4C248,405.7,248.1,405.7,248.1,405.7z"/>
	<path fill="#020202" d="M251.4,406.6c-0.1,0-0.2,0-0.3,0c-0.3,0-0.4-0.3-0.4-0.5c0-0.2,0.2-0.4,0.5-0.4c0.1,0,0.3,0,0.4,0
		c0.3,0,0.5,0.2,0.5,0.5c0,0.3-0.2,0.5-0.5,0.5C251.6,406.6,251.5,406.6,251.4,406.6C251.4,406.6,251.4,406.6,251.4,406.6z"/>
	<path fill="#020202" d="M254.7,406.7c-0.1,0-0.2,0-0.3,0c-0.2-0.1-0.4-0.2-0.3-0.5c0-0.2,0.2-0.4,0.4-0.4c0.2,0,0.3,0,0.5,0
		c0.3,0,0.5,0.2,0.5,0.4c0,0.3-0.2,0.5-0.4,0.5C254.9,406.6,254.8,406.6,254.7,406.7C254.7,406.6,254.7,406.6,254.7,406.7z"/>
</g>
<g>
	<path d="M448.6,430.1c-5.6,0-11.2,0-16.9,0c-0.2,0-0.4,0-0.5,0c-0.3-0.1-0.5-0.3-0.6-0.6c0-0.1,0-0.3,0-0.4c0-8.1,0-16.2,0-24.2
		c0-0.8,0.2-1,1-1c11.3,0,22.6,0,33.8,0c0.8,0,1.1,0.2,1.1,1.1c0,8.1,0,16.2,0,24.2c0,0.8-0.2,1-1,1
		C459.9,430.1,454.2,430.1,448.6,430.1z M432.1,411.3c0,5.8,0,11.5,0,17.2c11,0,22,0,32.9,0c0-5.8,0-11.5,0-17.2
		C454.1,411.3,443.1,411.3,432.1,411.3z M465.1,405.3c-11,0-21.9,0-32.9,0c0,1.5,0,3,0,4.5c11,0,21.9,0,32.9,0
		C465.1,408.3,465.1,406.8,465.1,405.3z"/>
	<path d="M452.4,422.4c-3,0-6.1,0-9.1,0c-0.2,0-0.5-0.1-0.7-0.2c-0.1-0.2-0.2-0.5-0.2-0.7c0-0.3,0.3-0.5,0.5-0.5c0.1,0,0.2,0,0.3,0
		c6.1,0,12.1,0,18.2,0c0.6,0,0.9,0.3,0.9,0.8c0,0.4-0.3,0.7-0.7,0.7c-0.1,0-0.2,0-0.4,0C458.3,422.4,455.4,422.4,452.4,422.4z"/>
	<path d="M452.4,415.3c-3,0-6,0-9,0c-0.7,0-1-0.3-1-0.7c0-0.5,0.4-0.7,1-0.7c6,0,12,0,18,0c0.2,0,0.3,0,0.5,0
		c0.3,0.1,0.6,0.4,0.5,0.8c0,0.3-0.3,0.6-0.6,0.6c-0.1,0-0.3,0-0.4,0C458.3,415.3,455.3,415.3,452.4,415.3z"/>
	<path d="M458.9,417.4c0.9,0,1.8,0,2.6,0c0.5,0,0.8,0.3,0.8,0.8c0,0.4-0.3,0.7-0.8,0.7c-1.8,0-3.6,0-5.4,0c-0.5,0-0.8-0.3-0.8-0.7
		c0-0.4,0.3-0.7,0.8-0.7C457.1,417.4,458,417.4,458.9,417.4z"/>
	<path d="M458.9,426c-0.9,0-1.7,0-2.6,0c-0.5,0-0.8-0.3-0.8-0.7c0-0.5,0.3-0.7,0.9-0.7c1.7,0,3.5,0,5.2,0c0.5,0,0.8,0.3,0.8,0.7
		c0,0.5-0.3,0.7-0.9,0.7C460.6,426,459.8,426,458.9,426z"/>
	<path d="M451.5,417.4c0.8,0,1.5,0,2.3,0c0.5,0,0.9,0.3,0.9,0.8c0,0.4-0.3,0.7-0.9,0.7c-1.5,0-3.1,0-4.6,0c-0.5,0-0.8-0.3-0.8-0.7
		c0-0.4,0.3-0.7,0.8-0.7C449.9,417.4,450.7,417.4,451.5,417.4z"/>
	<path d="M451.5,424.5c0.8,0,1.5,0,2.3,0c0.5,0,0.8,0.3,0.8,0.7c0,0.4-0.3,0.8-0.8,0.8c-1.6,0-3.1,0-4.7,0c-0.5,0-0.8-0.3-0.8-0.8
		c0-0.4,0.3-0.7,0.8-0.7C449.9,424.5,450.7,424.5,451.5,424.5z"/>
	<path d="M444.5,417.4c0.4,0,0.9,0,1.3,0c0.5,0,0.8,0.3,0.8,0.7c0,0.4-0.3,0.7-0.8,0.8c-0.9,0-1.8,0-2.7,0c-0.5,0-0.8-0.3-0.8-0.7
		c0-0.4,0.3-0.7,0.8-0.7c0,0,0,0,0.1,0C443.7,417.4,444.1,417.4,444.5,417.4C444.5,417.4,444.5,417.4,444.5,417.4z"/>
	<path d="M444.5,424.5c0.4,0,0.9,0,1.3,0c0.5,0,0.8,0.3,0.8,0.7c0,0.4-0.3,0.8-0.8,0.8c-0.9,0-1.8,0-2.7,0c-0.5,0-0.8-0.3-0.8-0.7
		c0-0.4,0.3-0.7,0.8-0.7C443.6,424.5,444.1,424.5,444.5,424.5z"/>
	<path d="M436.9,422.4c-0.4,0-0.9,0-1.3,0c-0.5,0-0.8-0.3-0.8-0.7c0-0.4,0.3-0.7,0.8-0.7c0.9,0,1.8,0,2.7,0c0.5,0,0.8,0.3,0.8,0.7
		c0,0.4-0.3,0.7-0.8,0.7C437.8,422.4,437.4,422.4,436.9,422.4z"/>
	<path d="M436.9,424.5c0.4,0,0.9,0,1.3,0c0.5,0,0.8,0.3,0.8,0.7c0,0.4-0.3,0.7-0.8,0.7c-0.9,0-1.8,0-2.7,0c-0.5,0-0.8-0.3-0.8-0.7
		c0-0.4,0.3-0.7,0.8-0.7C436.1,424.5,436.5,424.5,436.9,424.5z"/>
	<path d="M436.9,415.3c-0.4,0-0.9,0-1.3,0c-0.5,0-0.8-0.3-0.8-0.7c0-0.4,0.3-0.8,0.8-0.8c0.9,0,1.8,0,2.7,0c0.5,0,0.8,0.3,0.8,0.7
		c0,0.4-0.3,0.7-0.8,0.7C437.8,415.3,437.4,415.3,436.9,415.3z"/>
	<path d="M437,417.4c0.4,0,0.9,0,1.3,0c0.5,0,0.8,0.3,0.8,0.7c0,0.4-0.3,0.8-0.8,0.8c-0.9,0-1.8,0-2.7,0c-0.5,0-0.8-0.3-0.8-0.7
		c0-0.4,0.3-0.7,0.8-0.7c0,0,0,0,0.1,0C436.1,417.4,436.5,417.4,437,417.4z"/>
	<path d="M435.8,406.8c0.6,0,0.9,0.2,0.9,0.7c0,0.3-0.1,0.6-0.4,0.7c-0.4,0.2-0.8,0.2-1.2-0.1c-0.3-0.2-0.3-0.4-0.3-0.7
		C434.9,407,435.2,406.8,435.8,406.8z"/>
	<path d="M442.2,406.8c0.7,0,1.1,0.4,0.9,1c-0.2,0.5-0.6,0.5-1.3,0.4c-0.4,0-0.6-0.4-0.6-0.8C441.2,407,441.5,406.8,442.2,406.8z"/>
	<path d="M439,408.3c-0.1,0-0.2,0-0.3,0c-0.4,0-0.7-0.4-0.7-0.7c0-0.4,0.3-0.7,0.7-0.7c0.2,0,0.3,0,0.5,0c0.4,0,0.7,0.3,0.7,0.7
		c0,0.4-0.3,0.7-0.7,0.7C439.1,408.3,439,408.3,439,408.3C439,408.3,439,408.3,439,408.3z"/>
</g>
<g>
	<path d="M542.8,429.7c-3.5,0.1-6.9-1-10.2-2.8c-3.8-2.1-7.3-4.7-10.2-8c-1.1-1.3-1.1-2.8,0-4c3.5-3.8,7.6-7,12.4-9
		c6-2.5,12-2.2,17.9,0.6c3.4,1.6,6.5,3.9,9.2,6.5c0.6,0.6,1.3,1.3,1.9,1.9c1.2,1.3,1.2,2.8,0,4c-4,4.4-8.6,7.8-14.3,9.8
		C547.4,429.4,545.3,429.7,542.8,429.7z M543.1,427.1c1.8,0,3.5-0.3,5.3-0.8c2.4-0.7,4.6-1.8,6.6-3.2c2.4-1.6,4.8-3.5,6.7-5.7
		c0.4-0.5,0.4-0.5,0-1c-0.4-0.5-0.9-1-1.4-1.4c-2.8-2.7-5.9-4.9-9.5-6.5c-4-1.8-8-2.2-12.2-1.1c-3.2,0.8-6.1,2.4-8.7,4.3
		c-2,1.4-3.8,3-5.5,4.9c-0.2,0.3-0.3,0.4,0,0.7c2.9,3.3,6.4,5.9,10.4,7.9C537.4,426.4,540.2,427.1,543.1,427.1z"/>
	<path d="M551.3,416.9c0,4.5-3.6,8.2-8.2,8.2c-4.6,0-8.3-3.6-8.3-8.1c0-4.7,3.6-8.3,8.3-8.3C547.7,408.7,551.3,412.4,551.3,416.9z
		 M543.2,411.3c-3.1,0-5.7,2.5-5.7,5.6c0,3,2.5,5.6,5.6,5.7c3,0.1,5.6-2.5,5.6-5.6C548.8,413.9,546.3,411.4,543.2,411.3z"/>
</g>
<g>
	<path d="M647.4,428.5c0-7.7,0-15.5,0-23.2c-0.6,0-1.1,0-1.6,0c-0.7,0-1.4-0.5-1.5-1.3c-0.2-0.7,0.2-1.5,0.9-1.8
		c0.2-0.1,0.5-0.2,0.7-0.2c1.1,0,2.1,0,3.2,0c0.9,0,1.6,0.7,1.6,1.6c0,8.8,0,17.6,0,26.4c0,0.9-0.7,1.6-1.6,1.6c-1.1,0-2.1,0-3.2,0
		c-0.9,0-1.7-0.7-1.7-1.6c0-0.9,0.7-1.6,1.7-1.6C646.4,428.5,646.9,428.5,647.4,428.5z"/>
	<path d="M627.8,405.3c0,7.8,0,15.5,0,23.2c0.5,0,1.1,0,1.6,0c0.7,0,1.3,0.5,1.6,1.2c0.3,1-0.4,2.1-1.5,2.1c-1.1,0-2.3,0-3.4,0
		c-0.8,0-1.5-0.7-1.5-1.6c0-0.1,0-0.2,0-0.2c0-8.7,0-17.4,0-26.1c0-1.1,0.8-1.9,1.8-1.8c1,0,2,0,3,0c1,0,1.7,0.7,1.7,1.6
		c0,0.9-0.7,1.6-1.7,1.6C628.8,405.3,628.4,405.3,627.8,405.3z"/>
</g>
<circle cx="302.4" cy="419.5" r="2.7"/>
<circle cx="408.4" cy="419.5" r="2.7"/>
<circle cx="494.4" cy="419.5" r="2.7"/>
<circle cx="595.4" cy="419.5" r="2.7"/>
</svg>
