<?xml version="1.0" encoding="utf-8"?>
<!-- Generator: Adobe Illustrator 19.1.0, SVG Export Plug-In . SVG Version: 6.00 Build 0)  -->
<svg version="1.1" id="Layer_1" xmlns="http://www.w3.org/2000/svg" xmlns:xlink="http://www.w3.org/1999/xlink" x="0px" y="0px"
	 viewBox="-47 156.6 38.3 44.3" enable-background="new -47 156.6 38.3 44.3" xml:space="preserve">
<g>
	<path fill="#C2E3DB" d="M-30.2,192.3c0,0.6,0,1.2,0,1.7c0,0.1,0,0.2,0,0.4c-0.1,0.4-0.3,0.5-0.7,0.4c-0.5-0.2-0.9-0.4-1.4-0.5
		c-0.1,0-0.3,0-0.4,0c-0.4,0.2-0.9,0.3-1.3,0.5c-0.4,0.2-0.7-0.1-0.7-0.5c0-0.6,0-1.3,0-1.9c0,0,0,0,0-0.1c-0.1,0-0.2,0-0.3,0
		c-1.4,0-2.8,0-4.1,0c-0.5,0-0.6-0.2-0.6-0.6c0-8.9,0-17.7,0-26.6c0-0.5,0.2-0.6,0.6-0.6c7,0,14.1,0,21.1,0c0.9,0,1.6,0.7,1.6,1.6
		c0,8.2,0,16.4,0,24.6c0,0.9-0.7,1.6-1.6,1.6c-3.9,0-7.8,0-11.6,0C-30,192.3-30.1,192.3-30.2,192.3z M-36.2,165.5
		c0,8.6,0,17.2,0,25.8c0.1,0,0.2,0,0.3,0c5.9,0,11.7,0,17.6,0c0.6,0,0.8-0.2,0.8-0.8c0-8.1,0-16.2,0-24.3c0-0.6-0.2-0.8-0.7-0.8
		c-5.8,0-11.7,0-17.5,0C-36,165.5-36.1,165.5-36.2,165.5z M-38.9,165.5c0,8.6,0,17.2,0,25.8c0.6,0,1.1,0,1.7,0c0-8.6,0-17.2,0-25.8
		C-37.8,165.5-38.4,165.5-38.9,165.5z M-31.3,193.6c0-0.5,0-0.9,0-1.3c-0.9,0-1.7,0-2.5,0c0,0.4,0,0.8,0,1.3c0.3-0.1,0.6-0.3,1-0.4
		c0.2-0.1,0.4-0.1,0.6,0C-31.9,193.4-31.6,193.5-31.3,193.6z"/>
	<path fill="#C2E3DB" d="M-24.3,186.4c1.2,0,2.3,0,3.5,0c0.4,0,0.6,0.2,0.6,0.5c0,0.3-0.2,0.5-0.6,0.5c-2.3,0-4.6,0-6.9,0
		c-0.4,0-0.6-0.2-0.6-0.5c0-0.3,0.2-0.5,0.6-0.5C-26.5,186.4-25.4,186.4-24.3,186.4z"/>
	<path fill="#C2E3DB" d="M-23.2,189.4c-0.8,0-1.6,0-2.4,0c-0.4,0-0.6-0.2-0.6-0.5c0-0.3,0.2-0.5,0.6-0.5c1.6,0,3.2,0,4.8,0
		c0.4,0,0.6,0.2,0.6,0.5c0,0.3-0.2,0.5-0.6,0.5C-21.6,189.4-22.4,189.4-23.2,189.4z"/>
	<path fill="#C2E3DB" d="M-22.9,178.3c0-0.8,0.6-1.4,1.4-1.4c0.8,0,1.4,0.6,1.4,1.4c0,0.8-0.6,1.4-1.4,1.4
		C-22.3,179.7-23,179.1-22.9,178.3z M-21.2,178.3c0-0.2-0.2-0.4-0.4-0.4c-0.2,0-0.4,0.2-0.4,0.4c0,0.2,0.2,0.4,0.4,0.4
		C-21.3,178.7-21.2,178.5-21.2,178.3z"/>
	<path fill="#C2E3DB" d="M-25.5,178.3c0,0.8-0.6,1.4-1.4,1.4c-0.8,0-1.4-0.7-1.4-1.4c0-0.8,0.6-1.4,1.4-1.4
		C-26.1,177-25.5,177.6-25.5,178.3z M-26.9,178c-0.2,0-0.4,0.2-0.4,0.4c0,0.2,0.2,0.4,0.4,0.4c0.2,0,0.4-0.2,0.4-0.4
		C-26.5,178.1-26.7,178-26.9,178z"/>
	<path fill="#C2E3DB" d="M-33.7,182.9c0-0.8,0.6-1.4,1.4-1.4c0.8,0,1.4,0.6,1.4,1.4c0,0.8-0.6,1.4-1.4,1.4
		C-33.1,184.3-33.7,183.7-33.7,182.9z M-32.3,183.3c0.2,0,0.4-0.2,0.4-0.4c0-0.2-0.2-0.4-0.4-0.4c-0.2,0-0.4,0.1-0.4,0.4
		C-32.7,183.2-32.5,183.3-32.3,183.3z"/>
	<path fill="#C2E3DB" d="M-33.7,169.1c0-0.8,0.6-1.4,1.4-1.4c0.8,0,1.4,0.6,1.4,1.4c0,0.8-0.6,1.4-1.4,1.4
		C-33.1,170.5-33.7,169.9-33.7,169.1z M-31.9,169.1c0-0.2-0.2-0.4-0.4-0.4c-0.2,0-0.4,0.2-0.4,0.4c0,0.2,0.2,0.4,0.4,0.4
		C-32.1,169.5-31.9,169.3-31.9,169.1z"/>
	<path fill="#C2E3DB" d="M-22.9,173.7c0-0.8,0.6-1.4,1.4-1.4c0.8,0,1.4,0.6,1.4,1.4c0,0.8-0.6,1.4-1.4,1.4
		C-22.3,175.1-22.9,174.5-22.9,173.7z M-21.9,173.7c0,0.2,0.2,0.4,0.4,0.4c0.2,0,0.4-0.1,0.4-0.4c0-0.2-0.2-0.4-0.4-0.4
		C-21.8,173.3-21.9,173.5-21.9,173.7z"/>
	<path fill="#C2E3DB" d="M-33.7,178.3c0-0.8,0.6-1.4,1.4-1.4c0.8,0,1.4,0.6,1.4,1.4c0,0.8-0.7,1.4-1.4,1.4
		C-33.1,179.7-33.7,179.1-33.7,178.3z M-31.9,178.3c0-0.2-0.2-0.4-0.4-0.4c-0.2,0-0.4,0.1-0.4,0.4c0,0.2,0.2,0.4,0.4,0.4
		C-32.1,178.7-31.9,178.5-31.9,178.3z"/>
	<path fill="#C2E3DB" d="M-21.6,170.5c-0.8,0-1.4-0.6-1.4-1.4c0-0.8,0.6-1.4,1.4-1.4c0.8,0,1.4,0.6,1.4,1.4
		C-20.2,169.9-20.8,170.5-21.6,170.5z M-21.2,169.1c0-0.2-0.2-0.4-0.4-0.4c-0.2,0-0.4,0.1-0.4,0.4c0,0.2,0.1,0.4,0.4,0.4
		C-21.4,169.5-21.2,169.3-21.2,169.1z"/>
	<path fill="#C2E3DB" d="M-25.5,173.7c0,0.8-0.6,1.4-1.4,1.4c-0.8,0-1.4-0.6-1.4-1.4c0-0.8,0.6-1.4,1.4-1.4
		C-26.2,172.3-25.5,173-25.5,173.7z M-26.5,173.7c0-0.2-0.2-0.4-0.4-0.4c-0.2,0-0.4,0.2-0.4,0.4c0,0.2,0.1,0.4,0.4,0.4
		C-26.7,174.1-26.5,173.9-26.5,173.7z"/>
	<path fill="#C2E3DB" d="M-25.5,169.1c0,0.8-0.6,1.4-1.4,1.4c-0.8,0-1.4-0.6-1.4-1.4c0-0.8,0.6-1.4,1.4-1.4
		C-26.2,167.7-25.5,168.3-25.5,169.1z M-26.5,169.1c0-0.2-0.2-0.4-0.4-0.4c-0.2,0-0.4,0.2-0.4,0.4c0,0.2,0.1,0.4,0.4,0.4
		C-26.7,169.5-26.5,169.4-26.5,169.1z"/>
	<path fill="#C2E3DB" d="M-26.9,181.6c0.8,0,1.4,0.6,1.4,1.4c0,0.8-0.6,1.4-1.4,1.4c-0.8,0-1.4-0.6-1.4-1.4
		C-28.3,182.2-27.7,181.6-26.9,181.6z M-26.9,183.3c0.2,0,0.4-0.2,0.4-0.4c0-0.2-0.1-0.4-0.4-0.4c-0.2,0-0.4,0.2-0.4,0.4
		C-27.3,183.1-27.1,183.3-26.9,183.3z"/>
	<path fill="#C2E3DB" d="M-33.7,173.7c0-0.8,0.6-1.4,1.4-1.4c0.8,0,1.4,0.6,1.4,1.4c0,0.8-0.6,1.4-1.4,1.4
		C-33.1,175.1-33.7,174.5-33.7,173.7z M-32.3,173.3c-0.2,0-0.4,0.2-0.4,0.4c0,0.2,0.1,0.4,0.4,0.4c0.2,0,0.4-0.2,0.4-0.4
		C-31.9,173.5-32.1,173.3-32.3,173.3z"/>
	<path fill="#C2E3DB" d="M-21.6,181.6c0.8,0,1.4,0.6,1.4,1.4c0,0.8-0.6,1.4-1.4,1.4c-0.8,0-1.4-0.6-1.4-1.4
		C-22.9,182.2-22.3,181.6-21.6,181.6z M-21.5,182.6c-0.2,0-0.4,0.2-0.4,0.4c0,0.2,0.1,0.4,0.4,0.4c0.2,0,0.4-0.2,0.4-0.4
		C-21.2,182.8-21.3,182.6-21.5,182.6z"/>
</g>
</svg>
