<?xml version="1.0" encoding="utf-8"?>
<!-- Generator: Adobe Illustrator 19.1.0, SVG Export Plug-In . SVG Version: 6.00 Build 0)  -->
<svg version="1.1" id="Layer_1" xmlns="http://www.w3.org/2000/svg" xmlns:xlink="http://www.w3.org/1999/xlink" x="0px" y="0px"
	 viewBox="0 0 68.7 67.1" enable-background="new 0 0 68.7 67.1" xml:space="preserve">
<g>
	<path fill="#FBCBCC" d="M34.3,55.3c-9.3,0-18.5,0-27.8,0c-0.3,0-0.6,0-0.9-0.1c-0.6-0.1-0.9-0.5-0.9-1c0-0.2,0-0.4,0-0.6
		c0-13.3,0-26.6,0-40c0-1.3,0.4-1.7,1.7-1.7c18.6,0,37.2,0,55.8,0c1.4,0,1.7,0.4,1.7,1.8c0,13.3,0,26.6,0,40c0,1.3-0.4,1.7-1.7,1.7
		C53,55.3,43.7,55.3,34.3,55.3z M7.2,24.4c0,9.5,0,19,0,28.4c18.1,0,36.2,0,54.3,0c0-9.5,0-19,0-28.4C43.4,24.4,25.3,24.4,7.2,24.4z
		 M61.5,14.4c-18.1,0-36.2,0-54.3,0c0,2.5,0,5,0,7.5c18.1,0,36.2,0,54.3,0C61.5,19.4,61.5,16.9,61.5,14.4z"/>
	<path fill="#FBCBCC" d="M40.6,42.7c-5,0-10,0-15,0c-0.4,0-0.9-0.1-1.1-0.4c-0.2-0.3-0.3-0.8-0.3-1.1c0-0.5,0.4-0.8,0.9-0.9
		c0.2,0,0.3,0,0.5,0c10,0,20,0,30,0c0.9,0,1.5,0.5,1.5,1.2c0,0.6-0.5,1.1-1.1,1.2c-0.2,0-0.4,0-0.6,0C50.4,42.7,45.5,42.7,40.6,42.7
		z"/>
	<path fill="#FBCBCC" d="M40.6,31c-5,0-9.9,0-14.9,0c-1.1,0-1.7-0.4-1.7-1.2c0-0.8,0.6-1.2,1.7-1.2c9.9,0,19.7,0,29.6,0
		c0.3,0,0.5,0,0.8,0.1c0.6,0.2,0.9,0.7,0.9,1.3c-0.1,0.6-0.5,1-1,1.1c-0.2,0-0.5,0-0.7,0C50.4,31,45.5,31,40.6,31z"/>
	<path fill="#FBCBCC" d="M51.4,34.4c1.4,0,2.9,0,4.3,0c0.8,0,1.3,0.5,1.3,1.3c0,0.6-0.5,1.1-1.2,1.1c-2.9,0-5.9,0-8.8,0
		c-0.8,0-1.3-0.5-1.3-1.2c0-0.7,0.5-1.2,1.3-1.2C48.4,34.4,49.9,34.4,51.4,34.4z"/>
	<path fill="#FBCBCC" d="M51.3,48.5c-1.4,0-2.8,0-4.3,0c-0.8,0-1.4-0.5-1.4-1.2c0-0.8,0.5-1.2,1.4-1.2c2.8,0,5.7,0,8.5,0
		c0.9,0,1.4,0.5,1.4,1.2c0,0.8-0.5,1.2-1.4,1.2C54.2,48.5,52.8,48.5,51.3,48.5z"/>
	<path fill="#FBCBCC" d="M39.1,34.4c1.3,0,2.5,0,3.8,0c0.9,0,1.4,0.5,1.4,1.2c0,0.7-0.6,1.2-1.4,1.2c-2.5,0-5.1,0-7.6,0
		c-0.8,0-1.4-0.5-1.4-1.2c0-0.7,0.5-1.2,1.4-1.2C36.5,34.4,37.8,34.4,39.1,34.4z"/>
	<path fill="#FBCBCC" d="M39.1,46.1c1.3,0,2.5,0,3.8,0c0.8,0,1.3,0.5,1.4,1.2c0,0.7-0.5,1.2-1.4,1.2c-2.6,0-5.1,0-7.7,0
		c-0.8,0-1.4-0.5-1.4-1.2c0-0.7,0.5-1.2,1.4-1.2C36.5,46.1,37.8,46.1,39.1,46.1z"/>
	<path fill="#FBCBCC" d="M27.6,34.4c0.7,0,1.5,0,2.2,0c0.8,0,1.3,0.5,1.3,1.2c0,0.7-0.5,1.2-1.3,1.2c-1.5,0-3,0-4.4,0
		c-0.8,0-1.3-0.5-1.3-1.2c0-0.7,0.5-1.2,1.3-1.2c0,0,0.1,0,0.1,0C26.2,34.4,26.9,34.4,27.6,34.4L27.6,34.4z"/>
	<path fill="#FBCBCC" d="M27.6,46.1c0.7,0,1.5,0,2.2,0c0.8,0,1.3,0.5,1.3,1.2c0,0.7-0.5,1.2-1.3,1.2c-1.5,0-3,0-4.5,0
		c-0.7,0-1.3-0.5-1.3-1.2c0-0.7,0.5-1.2,1.3-1.2C26.1,46.1,26.9,46.1,27.6,46.1z"/>
	<path fill="#FBCBCC" d="M15.1,42.6c-0.7,0-1.5,0-2.2,0c-0.8,0-1.3-0.5-1.2-1.2c0-0.7,0.5-1.2,1.3-1.2c1.5,0,2.9,0,4.4,0
		c0.8,0,1.3,0.5,1.3,1.2c0,0.7-0.5,1.2-1.3,1.2C16.6,42.7,15.8,42.6,15.1,42.6z"/>
	<path fill="#FBCBCC" d="M15.1,46.1c0.7,0,1.5,0,2.2,0c0.7,0,1.3,0.5,1.3,1.2c0,0.7-0.5,1.2-1.3,1.2c-1.5,0-3,0-4.4,0
		c-0.7,0-1.2-0.5-1.2-1.2c0-0.7,0.5-1.2,1.3-1.2C13.7,46.1,14.4,46.1,15.1,46.1z"/>
	<path fill="#FBCBCC" d="M15.1,31c-0.7,0-1.4,0-2.1,0c-0.8,0-1.3-0.5-1.3-1.2c0-0.7,0.5-1.2,1.3-1.3c1.5,0,2.9,0,4.4,0
		c0.8,0,1.3,0.5,1.3,1.2c0,0.7-0.5,1.2-1.3,1.2C16.6,31,15.8,31,15.1,31z"/>
	<path fill="#FBCBCC" d="M15.2,34.4c0.7,0,1.4,0,2.1,0c0.8,0,1.3,0.5,1.3,1.2c0,0.7-0.5,1.2-1.3,1.3c-1.5,0-2.9,0-4.4,0
		c-0.8,0-1.3-0.5-1.3-1.2c0-0.7,0.5-1.2,1.3-1.2c0,0,0.1,0,0.1,0C13.8,34.4,14.5,34.4,15.2,34.4z"/>
	<path fill="#FBCBCC" d="M13.2,16.9c0.9,0,1.5,0.4,1.5,1.1c0,0.5-0.2,0.9-0.6,1.1c-0.7,0.3-1.4,0.3-2-0.1c-0.4-0.3-0.5-0.7-0.4-1.2
		C11.8,17.2,12.3,16.9,13.2,16.9z"/>
	<path fill="#FBCBCC" d="M23.7,16.9c1.2,0,1.8,0.7,1.5,1.6c-0.3,0.8-1,0.9-2.1,0.7c-0.6-0.1-1-0.6-0.9-1.3
		C22.2,17.3,22.7,16.9,23.7,16.9z"/>
	<path fill="#FBCBCC" d="M18.5,19.3c-0.2,0-0.3,0-0.5,0c-0.6-0.1-1.1-0.6-1.1-1.2c0-0.6,0.5-1.1,1.1-1.2c0.3,0,0.5,0,0.8,0
		c0.7,0,1.2,0.5,1.2,1.2c0,0.7-0.5,1.2-1.2,1.2C18.7,19.3,18.6,19.3,18.5,19.3C18.5,19.3,18.5,19.3,18.5,19.3z"/>
</g>
</svg>
