<?xml version="1.0" encoding="utf-8"?>
<!-- Generator: Adobe Illustrator 19.1.0, SVG Export Plug-In . SVG Version: 6.00 Build 0)  -->
<svg version="1.1" id="Layer_1" xmlns="http://www.w3.org/2000/svg" xmlns:xlink="http://www.w3.org/1999/xlink" x="0px" y="0px"
	 viewBox="-119.7 156.6 38.3 44.3" enable-background="new -119.7 156.6 38.3 44.3" xml:space="preserve">
<g>
	<path fill="#C2E3DB" d="M-101.5,192.3c0,0.6,0,1.2,0,1.7c0,0.1,0,0.2,0,0.4c-0.1,0.4-0.3,0.5-0.7,0.4c-0.5-0.2-0.9-0.4-1.4-0.5
		c-0.1,0-0.3,0-0.4,0c-0.4,0.2-0.9,0.3-1.3,0.5c-0.4,0.2-0.7-0.1-0.7-0.5c0-0.6,0-1.3,0-1.9c0,0,0,0,0-0.1c-0.1,0-0.2,0-0.3,0
		c-1.4,0-2.8,0-4.1,0c-0.5,0-0.6-0.2-0.6-0.6c0-8.9,0-17.7,0-26.6c0-0.5,0.2-0.6,0.6-0.6c7,0,14.1,0,21.1,0c0.9,0,1.6,0.7,1.6,1.6
		c0,8.2,0,16.4,0,24.6c0,0.9-0.7,1.6-1.6,1.6c-3.9,0-7.8,0-11.6,0C-101.2,192.3-101.4,192.3-101.5,192.3z M-107.5,165.5
		c0,8.6,0,17.2,0,25.8c0.1,0,0.2,0,0.3,0c5.9,0,11.7,0,17.6,0c0.6,0,0.8-0.2,0.8-0.8c0-8.1,0-16.2,0-24.3c0-0.6-0.2-0.8-0.7-0.8
		c-5.8,0-11.7,0-17.5,0C-107.3,165.5-107.4,165.5-107.5,165.5z M-110.2,165.5c0,8.6,0,17.2,0,25.8c0.6,0,1.1,0,1.7,0
		c0-8.6,0-17.2,0-25.8C-109.1,165.5-109.6,165.5-110.2,165.5z M-102.5,193.6c0-0.5,0-0.9,0-1.3c-0.9,0-1.7,0-2.5,0
		c0,0.4,0,0.8,0,1.3c0.3-0.1,0.6-0.3,1-0.4c0.2-0.1,0.4-0.1,0.6,0C-103.2,193.4-102.9,193.5-102.5,193.6z"/>
	<path fill="#C2E3DB" d="M-95.5,186.4c1.2,0,2.3,0,3.5,0c0.4,0,0.6,0.2,0.6,0.5c0,0.3-0.2,0.5-0.6,0.5c-2.3,0-4.6,0-6.9,0
		c-0.4,0-0.6-0.2-0.6-0.5c0-0.3,0.2-0.5,0.6-0.5C-97.8,186.4-96.7,186.4-95.5,186.4z"/>
	<path fill="#C2E3DB" d="M-98.3,167.7c1.1,0,2.3,0,3.4,0c0.4,0,0.6,0.2,0.6,0.5c0,0.3-0.2,0.5-0.6,0.5c-2.3,0-4.6,0-6.9,0
		c-0.4,0-0.6-0.2-0.6-0.5c0-0.3,0.2-0.5,0.6-0.5C-100.5,167.7-99.4,167.7-98.3,167.7z"/>
	<path fill="#C2E3DB" d="M-98.3,170.8c1.9,0,3.9,0,5.8,0c0.7,0,1,0.2,1,0.5c0,0.3-0.4,0.5-1,0.5c-3.9,0-7.7,0-11.6,0
		c-0.6,0-1-0.2-1-0.5c0-0.3,0.4-0.5,1.1-0.5C-102.1,170.8-100.2,170.8-98.3,170.8z"/>
	<path fill="#C2E3DB" d="M-98.3,173c1.9,0,3.9,0,5.8,0c0.7,0,1,0.2,1,0.5c0,0.3-0.4,0.5-1,0.5c-3.9,0-7.7,0-11.6,0
		c-0.6,0-1-0.2-1-0.5c0-0.3,0.4-0.5,1.1-0.5C-102.1,173-100.2,173-98.3,173z"/>
	<path fill="#C2E3DB" d="M-98.3,175.2c1.9,0,3.9,0,5.8,0c0.7,0,1,0.2,1,0.5c0,0.3-0.4,0.5-1,0.5c-3.9,0-7.7,0-11.6,0
		c-0.6,0-1-0.2-1-0.5c0-0.3,0.4-0.5,1.1-0.5C-102.1,175.2-100.2,175.2-98.3,175.2z"/>
	<path fill="#C2E3DB" d="M-98.3,177.3c1.9,0,3.9,0,5.8,0c0.7,0,1,0.2,1,0.5c0,0.3-0.4,0.5-1,0.5c-3.9,0-7.7,0-11.6,0
		c-0.6,0-1-0.2-1-0.5c0-0.3,0.4-0.5,1.1-0.5C-102.1,177.3-100.2,177.3-98.3,177.3z"/>
	<path fill="#C2E3DB" d="M-98.3,179.5c1.9,0,3.9,0,5.8,0c0.7,0,1,0.2,1,0.5c0,0.3-0.4,0.5-1,0.5c-3.9,0-7.7,0-11.6,0
		c-0.6,0-1-0.2-1-0.5c0-0.3,0.4-0.5,1.1-0.5C-102.1,179.5-100.2,179.5-98.3,179.5z"/>
	<path fill="#C2E3DB" d="M-98.3,181.7c1.9,0,3.9,0,5.8,0c0.7,0,1,0.2,1,0.5c0,0.3-0.4,0.5-1,0.5c-3.9,0-7.7,0-11.6,0
		c-0.6,0-1-0.2-1-0.5c0-0.3,0.4-0.5,1.1-0.5C-102.1,181.7-100.2,181.7-98.3,181.7z"/>
	<path fill="#C2E3DB" d="M-98.3,183.8c1.9,0,3.9,0,5.8,0c0.7,0,1,0.2,1,0.5c0,0.3-0.4,0.5-1,0.5c-3.9,0-7.7,0-11.6,0
		c-0.6,0-1-0.2-1-0.5c0-0.3,0.4-0.5,1.1-0.5C-102.1,183.8-100.2,183.8-98.3,183.8z"/>
	<path fill="#C2E3DB" d="M-94.4,189.4c-0.8,0-1.6,0-2.4,0c-0.4,0-0.6-0.2-0.6-0.5c0-0.3,0.2-0.5,0.6-0.5c1.6,0,3.2,0,4.8,0
		c0.4,0,0.6,0.2,0.6,0.5c0,0.3-0.2,0.5-0.6,0.5C-92.8,189.4-93.6,189.4-94.4,189.4z"/>
</g>
</svg>
