<?xml version="1.0" encoding="utf-8"?>
<!-- Generator: Adobe Illustrator 19.1.0, SVG Export Plug-In . SVG Version: 6.00 Build 0)  -->
<svg version="1.1" id="Layer_1" xmlns="http://www.w3.org/2000/svg" xmlns:xlink="http://www.w3.org/1999/xlink" x="0px" y="0px"
	 viewBox="-361 273.9 68.7 67.1" enable-background="new -361 273.9 68.7 67.1" xml:space="preserve">
<path fill="#141B35" d="M-326.5,276.7c-16.9,0-30.5,13.7-30.5,30.5c0,16.9,13.7,30.5,30.5,30.5c16.9,0,30.5-13.7,30.5-30.5
	C-296,290.4-309.7,276.7-326.5,276.7z M-307.2,322.9c-13,0-25.9,0-38.9,0c-0.8,0-0.8,0-0.7-0.8c0.1-1.6,0.9-2.9,1.7-4.3
	c0.5-0.8,1.1-1.4,1.6-2.1c0.4-0.5,1-0.8,1.6-1.2c2.7-1.5,5.5-2.6,8.4-3.6c0.5-0.2,0.8-0.5,1.1-0.9c0.4-0.6,0.6-1.3,0.8-1.9
	c0.1-0.3,0-0.5-0.1-0.8c-0.4-0.6-0.8-1.3-1.2-1.9c-0.1-0.1-0.2-0.3-0.3-0.4c-1-1.9-1.9-3.9-2.3-6.1c-0.3-1.3-0.3-2.7-0.2-4
	c0.1-1.4,0.2-2.8,0.6-4.2c0.7-2.5,2-4.5,4.5-5.4c1.4-0.5,2.9-0.7,4.4-0.6c1.5,0.1,2.9,0.5,4.2,1.2c0.9,0.5,1.5,1.3,2.2,2.1
	c0.2,0.2,0.2,0.5,0.4,0.7c2.2,5.4,2.1,10.6-0.7,15.8c-0.1,0.1-0.1,0.3-0.3,0.4c-0.5,0.7-0.9,1.5-1.4,2.2c-0.1,0.1-0.1,0.2-0.3,0.3
	c-0.2,0.3-0.2,0.6-0.2,0.9c0.2,1.7,1.3,2.5,2.8,2.8c2,0.5,4,1.3,5.9,2.1c0.5,0.2,0.9,0.4,1.4,0.6c0.1,0.1,0.3,0.1,0.4,0.3
	c2.3,2.1,4,4.7,5.2,7.6C-306.1,322.7-306.2,322.9-307.2,322.9z"/>
</svg>
