<?xml version="1.0" encoding="utf-8"?>
<!-- Generator: Adobe Illustrator 19.1.0, SVG Export Plug-In . SVG Version: 6.00 Build 0)  -->
<svg version="1.1" id="Layer_1" xmlns="http://www.w3.org/2000/svg" xmlns:xlink="http://www.w3.org/1999/xlink" x="0px" y="0px"
	 viewBox="0 0 68.7 67.1" enable-background="new 0 0 68.7 67.1" xml:space="preserve">
<g>
	<path fill="#ABDFE9" d="M33.9,53.3C28.5,53.4,23.1,51.8,18,49c-5.9-3.2-11.2-7.3-15.8-12.4c-1.8-2-1.8-4.3,0-6.3
		c5.5-6,11.7-10.9,19.2-14c9.3-3.9,18.6-3.4,27.7,0.9c5.3,2.5,10,6,14.3,10.1c1,1,2,2,2.9,3c1.8,2,1.8,4.3,0,6.3
		c-6.2,6.8-13.4,12.1-22.1,15.1C41.1,52.9,37.8,53.4,33.9,53.3z M34.4,49.3c2.8,0,5.5-0.4,8.1-1.2c3.7-1.1,7.1-2.8,10.3-5
		c3.8-2.6,7.4-5.4,10.4-8.8c0.6-0.7,0.7-0.8,0-1.5c-0.7-0.8-1.4-1.5-2.1-2.2c-4.3-4.2-9.2-7.6-14.7-10.1c-6.1-2.7-12.4-3.4-18.9-1.8
		c-4.9,1.3-9.4,3.7-13.5,6.6c-3.1,2.2-6,4.7-8.5,7.6c-0.3,0.4-0.4,0.7,0,1.1c4.6,5.1,9.9,9.2,16.1,12.2
		C25.6,48.2,29.9,49.3,34.4,49.3z"/>
	<path fill="#ABDFE9" d="M47.1,33.6c0,7.1-5.6,12.7-12.7,12.7c-7.1,0-12.8-5.6-12.8-12.5c0-7.3,5.6-12.9,12.8-12.9
		C41.5,20.8,47.1,26.5,47.1,33.6z M34.5,24.8c-4.8-0.1-8.8,3.8-8.8,8.7c-0.1,4.7,3.9,8.7,8.7,8.8c4.7,0.1,8.6-3.8,8.7-8.6
		C43.1,28.9,39.3,24.9,34.5,24.8z"/>
</g>
</svg>
